<svg width="760" height="269" viewBox="0 0 760 269" fill="none" xmlns="http://www.w3.org/2000/svg">
<mask id="path-1-outside-1_6_3" maskUnits="userSpaceOnUse" x="-0.425964" y="-0.75" width="761" height="270" fill="black">
<rect fill="white" x="-0.425964" y="-0.75" width="761" height="270"/>
<path d="M52.1 113.45C49 113.45 46.6 112.6 44.9 110.9C43.3 109.1 42.5 106.65 42.5 103.55V22.55H13.25C10.65 22.55 8.60001 21.85 7.10001 20.45C5.70001 18.95 5.00001 16.95 5.00001 14.45C5.00001 11.85 5.70001 9.89999 7.10001 8.59999C8.60001 7.19999 10.65 6.49999 13.25 6.49999H90.95C93.55 6.49999 95.55 7.19999 96.95 8.59999C98.45 9.89999 99.2 11.85 99.2 14.45C99.2 16.95 98.45 18.95 96.95 20.45C95.55 21.85 93.55 22.55 90.95 22.55H61.7V103.55C61.7 106.65 60.9 109.1 59.3 110.9C57.7 112.6 55.3 113.45 52.1 113.45ZM151.119 113.75C140.919 113.75 131.969 111.5 124.269 107C116.669 102.5 110.769 96.2 106.569 88.1C102.369 79.9 100.269 70.3 100.269 59.3C100.269 51 101.469 43.55 103.869 36.95C106.269 30.25 109.669 24.55 114.069 19.85C118.569 15.05 123.919 11.4 130.119 8.9C136.419 6.3 143.419 4.99999 151.119 4.99999C161.419 4.99999 170.369 7.25 177.969 11.75C185.569 16.15 191.469 22.4 195.669 30.5C199.869 38.6 201.969 48.15 201.969 59.15C201.969 67.45 200.769 74.95 198.369 81.65C195.969 88.35 192.519 94.1 188.019 98.9C183.619 103.7 178.269 107.4 171.969 110C165.769 112.5 158.819 113.75 151.119 113.75ZM151.119 97.25C157.619 97.25 163.119 95.75 167.619 92.75C172.219 89.75 175.719 85.4 178.119 79.7C180.619 74 181.869 67.2 181.869 59.3C181.869 47.3 179.169 38 173.769 31.4C168.469 24.8 160.919 21.5 151.119 21.5C144.719 21.5 139.219 23 134.619 26C130.019 28.9 126.469 33.2 123.969 38.9C121.569 44.5 120.369 51.3 120.369 59.3C120.369 71.2 123.069 80.5 128.469 87.2C133.869 93.9 141.419 97.25 151.119 97.25ZM250.147 113.45C247.047 113.45 244.647 112.6 242.947 110.9C241.347 109.1 240.547 106.65 240.547 103.55V22.55H211.297C208.697 22.55 206.647 21.85 205.147 20.45C203.747 18.95 203.047 16.95 203.047 14.45C203.047 11.85 203.747 9.89999 205.147 8.59999C206.647 7.19999 208.697 6.49999 211.297 6.49999H288.997C291.597 6.49999 293.597 7.19999 294.997 8.59999C296.497 9.89999 297.247 11.85 297.247 14.45C297.247 16.95 296.497 18.95 294.997 20.45C293.597 21.85 291.597 22.55 288.997 22.55H259.747V103.55C259.747 106.65 258.947 109.1 257.347 110.9C255.747 112.6 253.347 113.45 250.147 113.45ZM349.166 113.75C338.966 113.75 330.016 111.5 322.316 107C314.716 102.5 308.816 96.2 304.616 88.1C300.416 79.9 298.316 70.3 298.316 59.3C298.316 51 299.516 43.55 301.916 36.95C304.316 30.25 307.716 24.55 312.116 19.85C316.616 15.05 321.966 11.4 328.166 8.9C334.466 6.3 341.466 4.99999 349.166 4.99999C359.466 4.99999 368.416 7.25 376.016 11.75C383.616 16.15 389.516 22.4 393.716 30.5C397.916 38.6 400.016 48.15 400.016 59.15C400.016 67.45 398.816 74.95 396.416 81.65C394.016 88.35 390.566 94.1 386.066 98.9C381.666 103.7 376.316 107.4 370.016 110C363.816 112.5 356.866 113.75 349.166 113.75ZM349.166 97.25C355.666 97.25 361.166 95.75 365.666 92.75C370.266 89.75 373.766 85.4 376.166 79.7C378.666 74 379.916 67.2 379.916 59.3C379.916 47.3 377.216 38 371.816 31.4C366.516 24.8 358.966 21.5 349.166 21.5C342.766 21.5 337.266 23 332.666 26C328.066 28.9 324.516 33.2 322.016 38.9C319.616 44.5 318.416 51.3 318.416 59.3C318.416 71.2 321.116 80.5 326.516 87.2C331.916 93.9 339.466 97.25 349.166 97.25ZM429.139 113.45C426.039 113.45 423.639 112.6 421.939 110.9C420.339 109.1 419.539 106.65 419.539 103.55V16.25C419.539 13.05 420.389 10.65 422.089 9.05C423.789 7.34999 426.189 6.49999 429.289 6.49999H465.439C477.039 6.49999 485.989 9.29999 492.289 14.9C498.589 20.4 501.739 28.15 501.739 38.15C501.739 44.65 500.289 50.25 497.389 54.95C494.589 59.65 490.489 63.25 485.089 65.75C479.689 68.25 473.139 69.5 465.439 69.5L466.789 67.25H471.739C475.839 67.25 479.389 68.25 482.389 70.25C485.489 72.25 488.189 75.4 490.489 79.7L501.739 100.55C502.939 102.65 503.489 104.7 503.389 106.7C503.289 108.7 502.539 110.35 501.139 111.65C499.739 112.85 497.689 113.45 494.989 113.45C492.289 113.45 490.089 112.9 488.389 111.8C486.689 110.6 485.189 108.8 483.889 106.4L468.739 78.5C466.939 75.1 464.789 72.85 462.289 71.75C459.889 70.55 456.789 69.95 452.989 69.95H438.739V103.55C438.739 106.65 437.939 109.1 436.339 110.9C434.739 112.6 432.339 113.45 429.139 113.45ZM438.739 55.7H462.139C469.039 55.7 474.239 54.3 477.739 51.5C481.339 48.6 483.139 44.3 483.139 38.6C483.139 33 481.339 28.8 477.739 26C474.239 23.1 469.039 21.65 462.139 21.65H438.739V55.7ZM569.039 113.75C558.839 113.75 549.889 111.5 542.189 107C534.589 102.5 528.689 96.2 524.489 88.1C520.289 79.9 518.189 70.3 518.189 59.3C518.189 51 519.389 43.55 521.789 36.95C524.189 30.25 527.589 24.55 531.989 19.85C536.489 15.05 541.839 11.4 548.039 8.9C554.339 6.3 561.339 4.99999 569.039 4.99999C579.339 4.99999 588.289 7.25 595.889 11.75C603.489 16.15 609.389 22.4 613.589 30.5C617.789 38.6 619.889 48.15 619.889 59.15C619.889 67.45 618.689 74.95 616.289 81.65C613.889 88.35 610.439 94.1 605.939 98.9C601.539 103.7 596.189 107.4 589.889 110C583.689 112.5 576.739 113.75 569.039 113.75ZM569.039 97.25C575.539 97.25 581.039 95.75 585.539 92.75C590.139 89.75 593.639 85.4 596.039 79.7C598.539 74 599.789 67.2 599.789 59.3C599.789 47.3 597.089 38 591.689 31.4C586.389 24.8 578.839 21.5 569.039 21.5C562.639 21.5 557.139 23 552.539 26C547.939 28.9 544.389 33.2 541.889 38.9C539.489 44.5 538.289 51.3 538.289 59.3C538.289 71.2 540.989 80.5 546.389 87.2C551.789 93.9 559.339 97.25 569.039 97.25ZM648.28 43.25C646.98 44.85 645.58 45.75 644.08 45.95C642.68 46.15 641.43 45.9 640.33 45.2C639.23 44.4 638.63 43.3 638.53 41.9C638.43 40.4 639.08 38.8 640.48 37.1C642.48 34.6 643.83 32.1 644.53 29.6C645.23 27.1 645.58 24.9 645.58 23L646.33 27.95C642.83 27.95 639.98 26.95 637.78 24.95C635.68 22.95 634.63 20.25 634.63 16.85C634.63 13.55 635.63 10.9 637.63 8.9C639.63 6.8 642.33 5.74999 645.73 5.74999C649.23 5.74999 651.98 6.94999 653.98 9.34999C655.98 11.65 656.98 15 656.98 19.4C656.98 21.8 656.73 24.3 656.23 26.9C655.83 29.4 654.98 32.05 653.68 34.85C652.48 37.55 650.68 40.35 648.28 43.25ZM713.069 113.75C708.669 113.75 704.269 113.4 699.869 112.7C695.469 112.1 691.319 111.15 687.419 109.85C683.519 108.45 680.019 106.75 676.919 104.75C675.119 103.55 673.869 102.1 673.169 100.4C672.469 98.7 672.219 97.05 672.419 95.45C672.719 93.75 673.369 92.3 674.369 91.1C675.469 89.8 676.819 89 678.419 88.7C680.019 88.4 681.769 88.85 683.669 90.05C688.069 92.65 692.719 94.55 697.619 95.75C702.519 96.95 707.669 97.55 713.069 97.55C720.969 97.55 726.719 96.25 730.319 93.65C733.919 90.95 735.719 87.5 735.719 83.3C735.719 79.8 734.419 77.05 731.819 75.05C729.319 73.05 724.969 71.4 718.769 70.1L702.269 66.65C692.769 64.65 685.669 61.3 680.969 56.6C676.369 51.8 674.069 45.5 674.069 37.7C674.069 32.8 675.069 28.35 677.069 24.35C679.069 20.35 681.869 16.9 685.469 14C689.169 11.1 693.519 8.9 698.519 7.39999C703.619 5.79999 709.219 4.99999 715.319 4.99999C721.319 4.99999 727.019 5.74999 732.419 7.24999C737.819 8.74999 742.669 10.95 746.969 13.85C748.569 14.95 749.619 16.3 750.119 17.9C750.719 19.5 750.869 21.1 750.569 22.7C750.269 24.2 749.569 25.5 748.469 26.6C747.369 27.7 745.969 28.35 744.269 28.55C742.669 28.75 740.819 28.25 738.719 27.05C735.019 24.95 731.269 23.45 727.469 22.55C723.669 21.65 719.569 21.2 715.169 21.2C710.569 21.2 706.619 21.85 703.319 23.15C700.019 24.45 697.469 26.3 695.669 28.7C693.969 31 693.119 33.75 693.119 36.95C693.119 40.55 694.319 43.45 696.719 45.65C699.119 47.75 703.219 49.4 709.019 50.6L725.369 54.05C735.269 56.15 742.619 59.45 747.419 63.95C752.319 68.45 754.769 74.45 754.769 81.95C754.769 86.75 753.769 91.1 751.769 95C749.869 98.9 747.069 102.25 743.369 105.05C739.769 107.85 735.419 110 730.319 111.5C725.219 113 719.469 113.75 713.069 113.75ZM196.272 263.75C191.872 263.75 187.472 263.4 183.072 262.7C178.672 262.1 174.522 261.15 170.622 259.85C166.722 258.45 163.222 256.75 160.122 254.75C158.322 253.55 157.072 252.1 156.372 250.4C155.672 248.7 155.422 247.05 155.622 245.45C155.922 243.75 156.572 242.3 157.572 241.1C158.672 239.8 160.022 239 161.622 238.7C163.222 238.4 164.972 238.85 166.872 240.05C171.272 242.65 175.922 244.55 180.822 245.75C185.722 246.95 190.872 247.55 196.272 247.55C204.172 247.55 209.922 246.25 213.522 243.65C217.122 240.95 218.922 237.5 218.922 233.3C218.922 229.8 217.622 227.05 215.022 225.05C212.522 223.05 208.172 221.4 201.972 220.1L185.472 216.65C175.972 214.65 168.872 211.3 164.172 206.6C159.572 201.8 157.272 195.5 157.272 187.7C157.272 182.8 158.272 178.35 160.272 174.35C162.272 170.35 165.072 166.9 168.672 164C172.372 161.1 176.722 158.9 181.722 157.4C186.822 155.8 192.422 155 198.522 155C204.522 155 210.222 155.75 215.622 157.25C221.022 158.75 225.872 160.95 230.172 163.85C231.772 164.95 232.822 166.3 233.322 167.9C233.922 169.5 234.072 171.1 233.772 172.7C233.472 174.2 232.772 175.5 231.672 176.6C230.572 177.7 229.172 178.35 227.472 178.55C225.872 178.75 224.022 178.25 221.922 177.05C218.222 174.95 214.472 173.45 210.672 172.55C206.872 171.65 202.772 171.2 198.372 171.2C193.772 171.2 189.822 171.85 186.522 173.15C183.222 174.45 180.672 176.3 178.872 178.7C177.172 181 176.322 183.75 176.322 186.95C176.322 190.55 177.522 193.45 179.922 195.65C182.322 197.75 186.422 199.4 192.222 200.6L208.572 204.05C218.472 206.15 225.822 209.45 230.622 213.95C235.522 218.45 237.972 224.45 237.972 231.95C237.972 236.75 236.972 241.1 234.972 245C233.072 248.9 230.272 252.25 226.572 255.05C222.972 257.85 218.622 260 213.522 261.5C208.422 263 202.672 263.75 196.272 263.75ZM264.051 263.45C260.951 263.45 258.551 262.6 256.851 260.9C255.251 259.1 254.451 256.65 254.451 253.55V165.2C254.451 162 255.251 159.55 256.851 157.85C258.551 156.15 260.951 155.3 264.051 155.3C267.151 155.3 269.501 156.15 271.101 157.85C272.801 159.55 273.651 162 273.651 165.2V200.6H328.101V165.2C328.101 162 328.901 159.55 330.501 157.85C332.201 156.15 334.601 155.3 337.701 155.3C340.801 155.3 343.151 156.15 344.751 157.85C346.451 159.55 347.301 162 347.301 165.2V253.55C347.301 256.65 346.451 259.1 344.751 260.9C343.151 262.6 340.801 263.45 337.701 263.45C334.601 263.45 332.201 262.6 330.501 260.9C328.901 259.1 328.101 256.65 328.101 253.55V216.65H273.651V253.55C273.651 256.65 272.851 259.1 271.251 260.9C269.651 262.6 267.251 263.45 264.051 263.45ZM380.667 262.25C377.367 262.25 374.817 261.4 373.017 259.7C371.317 257.9 370.467 255.35 370.467 252.05V166.7C370.467 163.4 371.317 160.9 373.017 159.2C374.817 157.4 377.367 156.5 380.667 156.5H434.217C436.717 156.5 438.617 157.15 439.917 158.45C441.317 159.75 442.017 161.6 442.017 164C442.017 166.5 441.317 168.45 439.917 169.85C438.617 171.15 436.717 171.8 434.217 171.8H388.917V200.9H430.917C433.517 200.9 435.467 201.55 436.767 202.85C438.067 204.15 438.717 206.05 438.717 208.55C438.717 211.05 438.067 212.95 436.767 214.25C435.467 215.55 433.517 216.2 430.917 216.2H388.917V246.95H434.217C436.717 246.95 438.617 247.6 439.917 248.9C441.317 250.2 442.017 252.1 442.017 254.6C442.017 257.1 441.317 259 439.917 260.3C438.617 261.6 436.717 262.25 434.217 262.25H380.667ZM469.719 262.25C466.619 262.25 464.219 261.4 462.519 259.7C460.819 257.9 459.969 255.45 459.969 252.35V165.8C459.969 162.6 460.769 160.2 462.369 158.6C464.069 156.9 466.469 156.05 469.569 156.05C472.669 156.05 475.019 156.9 476.619 158.6C478.319 160.2 479.169 162.6 479.169 165.8V245.9H522.669C525.369 245.9 527.419 246.6 528.819 248C530.319 249.4 531.069 251.4 531.069 254C531.069 256.6 530.319 258.65 528.819 260.15C527.419 261.55 525.369 262.25 522.669 262.25H469.719ZM554.097 263.45C550.997 263.45 548.547 262.6 546.747 260.9C545.047 259.1 544.197 256.55 544.197 253.25V166.7C544.197 163.4 545.047 160.9 546.747 159.2C548.547 157.4 551.097 156.5 554.397 156.5H606.747C609.347 156.5 611.297 157.15 612.597 158.45C613.897 159.75 614.547 161.6 614.547 164C614.547 166.5 613.897 168.45 612.597 169.85C611.297 171.15 609.347 171.8 606.747 171.8H563.397V201.65H603.597C606.097 201.65 607.997 202.3 609.297 203.6C610.697 204.9 611.397 206.75 611.397 209.15C611.397 211.65 610.697 213.6 609.297 215C607.997 216.3 606.097 216.95 603.597 216.95H563.397V253.25C563.397 260.05 560.297 263.45 554.097 263.45Z"/>
</mask>
<path d="M52.1 113.45C49 113.45 46.6 112.6 44.9 110.9C43.3 109.1 42.5 106.65 42.5 103.55V22.55H13.25C10.65 22.55 8.60001 21.85 7.10001 20.45C5.70001 18.95 5.00001 16.95 5.00001 14.45C5.00001 11.85 5.70001 9.89999 7.10001 8.59999C8.60001 7.19999 10.65 6.49999 13.25 6.49999H90.95C93.55 6.49999 95.55 7.19999 96.95 8.59999C98.45 9.89999 99.2 11.85 99.2 14.45C99.2 16.95 98.45 18.95 96.95 20.45C95.55 21.85 93.55 22.55 90.95 22.55H61.7V103.55C61.7 106.65 60.9 109.1 59.3 110.9C57.7 112.6 55.3 113.45 52.1 113.45ZM151.119 113.75C140.919 113.75 131.969 111.5 124.269 107C116.669 102.5 110.769 96.2 106.569 88.1C102.369 79.9 100.269 70.3 100.269 59.3C100.269 51 101.469 43.55 103.869 36.95C106.269 30.25 109.669 24.55 114.069 19.85C118.569 15.05 123.919 11.4 130.119 8.9C136.419 6.3 143.419 4.99999 151.119 4.99999C161.419 4.99999 170.369 7.25 177.969 11.75C185.569 16.15 191.469 22.4 195.669 30.5C199.869 38.6 201.969 48.15 201.969 59.15C201.969 67.45 200.769 74.95 198.369 81.65C195.969 88.35 192.519 94.1 188.019 98.9C183.619 103.7 178.269 107.4 171.969 110C165.769 112.5 158.819 113.75 151.119 113.75ZM151.119 97.25C157.619 97.25 163.119 95.75 167.619 92.75C172.219 89.75 175.719 85.4 178.119 79.7C180.619 74 181.869 67.2 181.869 59.3C181.869 47.3 179.169 38 173.769 31.4C168.469 24.8 160.919 21.5 151.119 21.5C144.719 21.5 139.219 23 134.619 26C130.019 28.9 126.469 33.2 123.969 38.9C121.569 44.5 120.369 51.3 120.369 59.3C120.369 71.2 123.069 80.5 128.469 87.2C133.869 93.9 141.419 97.25 151.119 97.25ZM250.147 113.45C247.047 113.45 244.647 112.6 242.947 110.9C241.347 109.1 240.547 106.65 240.547 103.55V22.55H211.297C208.697 22.55 206.647 21.85 205.147 20.45C203.747 18.95 203.047 16.95 203.047 14.45C203.047 11.85 203.747 9.89999 205.147 8.59999C206.647 7.19999 208.697 6.49999 211.297 6.49999H288.997C291.597 6.49999 293.597 7.19999 294.997 8.59999C296.497 9.89999 297.247 11.85 297.247 14.45C297.247 16.95 296.497 18.95 294.997 20.45C293.597 21.85 291.597 22.55 288.997 22.55H259.747V103.55C259.747 106.65 258.947 109.1 257.347 110.9C255.747 112.6 253.347 113.45 250.147 113.45ZM349.166 113.75C338.966 113.75 330.016 111.5 322.316 107C314.716 102.5 308.816 96.2 304.616 88.1C300.416 79.9 298.316 70.3 298.316 59.3C298.316 51 299.516 43.55 301.916 36.95C304.316 30.25 307.716 24.55 312.116 19.85C316.616 15.05 321.966 11.4 328.166 8.9C334.466 6.3 341.466 4.99999 349.166 4.99999C359.466 4.99999 368.416 7.25 376.016 11.75C383.616 16.15 389.516 22.4 393.716 30.5C397.916 38.6 400.016 48.15 400.016 59.15C400.016 67.45 398.816 74.95 396.416 81.65C394.016 88.35 390.566 94.1 386.066 98.9C381.666 103.7 376.316 107.4 370.016 110C363.816 112.5 356.866 113.75 349.166 113.75ZM349.166 97.25C355.666 97.25 361.166 95.75 365.666 92.75C370.266 89.75 373.766 85.4 376.166 79.7C378.666 74 379.916 67.2 379.916 59.3C379.916 47.3 377.216 38 371.816 31.4C366.516 24.8 358.966 21.5 349.166 21.5C342.766 21.5 337.266 23 332.666 26C328.066 28.9 324.516 33.2 322.016 38.9C319.616 44.5 318.416 51.3 318.416 59.3C318.416 71.2 321.116 80.5 326.516 87.2C331.916 93.9 339.466 97.25 349.166 97.25ZM429.139 113.45C426.039 113.45 423.639 112.6 421.939 110.9C420.339 109.1 419.539 106.65 419.539 103.55V16.25C419.539 13.05 420.389 10.65 422.089 9.05C423.789 7.34999 426.189 6.49999 429.289 6.49999H465.439C477.039 6.49999 485.989 9.29999 492.289 14.9C498.589 20.4 501.739 28.15 501.739 38.15C501.739 44.65 500.289 50.25 497.389 54.95C494.589 59.65 490.489 63.25 485.089 65.75C479.689 68.25 473.139 69.5 465.439 69.5L466.789 67.25H471.739C475.839 67.25 479.389 68.25 482.389 70.25C485.489 72.25 488.189 75.4 490.489 79.7L501.739 100.55C502.939 102.65 503.489 104.7 503.389 106.7C503.289 108.7 502.539 110.35 501.139 111.65C499.739 112.85 497.689 113.45 494.989 113.45C492.289 113.45 490.089 112.9 488.389 111.8C486.689 110.6 485.189 108.8 483.889 106.4L468.739 78.5C466.939 75.1 464.789 72.85 462.289 71.75C459.889 70.55 456.789 69.95 452.989 69.95H438.739V103.55C438.739 106.65 437.939 109.1 436.339 110.9C434.739 112.6 432.339 113.45 429.139 113.45ZM438.739 55.7H462.139C469.039 55.7 474.239 54.3 477.739 51.5C481.339 48.6 483.139 44.3 483.139 38.6C483.139 33 481.339 28.8 477.739 26C474.239 23.1 469.039 21.65 462.139 21.65H438.739V55.7ZM569.039 113.75C558.839 113.75 549.889 111.5 542.189 107C534.589 102.5 528.689 96.2 524.489 88.1C520.289 79.9 518.189 70.3 518.189 59.3C518.189 51 519.389 43.55 521.789 36.95C524.189 30.25 527.589 24.55 531.989 19.85C536.489 15.05 541.839 11.4 548.039 8.9C554.339 6.3 561.339 4.99999 569.039 4.99999C579.339 4.99999 588.289 7.25 595.889 11.75C603.489 16.15 609.389 22.4 613.589 30.5C617.789 38.6 619.889 48.15 619.889 59.15C619.889 67.45 618.689 74.95 616.289 81.65C613.889 88.35 610.439 94.1 605.939 98.9C601.539 103.7 596.189 107.4 589.889 110C583.689 112.5 576.739 113.75 569.039 113.75ZM569.039 97.25C575.539 97.25 581.039 95.75 585.539 92.75C590.139 89.75 593.639 85.4 596.039 79.7C598.539 74 599.789 67.2 599.789 59.3C599.789 47.3 597.089 38 591.689 31.4C586.389 24.8 578.839 21.5 569.039 21.5C562.639 21.5 557.139 23 552.539 26C547.939 28.9 544.389 33.2 541.889 38.9C539.489 44.5 538.289 51.3 538.289 59.3C538.289 71.2 540.989 80.5 546.389 87.2C551.789 93.9 559.339 97.25 569.039 97.25ZM648.28 43.25C646.98 44.85 645.58 45.75 644.08 45.95C642.68 46.15 641.43 45.9 640.33 45.2C639.23 44.4 638.63 43.3 638.53 41.9C638.43 40.4 639.08 38.8 640.48 37.1C642.48 34.6 643.83 32.1 644.53 29.6C645.23 27.1 645.58 24.9 645.58 23L646.33 27.95C642.83 27.95 639.98 26.95 637.78 24.95C635.68 22.95 634.63 20.25 634.63 16.85C634.63 13.55 635.63 10.9 637.63 8.9C639.63 6.8 642.33 5.74999 645.73 5.74999C649.23 5.74999 651.98 6.94999 653.98 9.34999C655.98 11.65 656.98 15 656.98 19.4C656.98 21.8 656.73 24.3 656.23 26.9C655.83 29.4 654.98 32.05 653.68 34.85C652.48 37.55 650.68 40.35 648.28 43.25ZM713.069 113.75C708.669 113.75 704.269 113.4 699.869 112.7C695.469 112.1 691.319 111.15 687.419 109.85C683.519 108.45 680.019 106.75 676.919 104.75C675.119 103.55 673.869 102.1 673.169 100.4C672.469 98.7 672.219 97.05 672.419 95.45C672.719 93.75 673.369 92.3 674.369 91.1C675.469 89.8 676.819 89 678.419 88.7C680.019 88.4 681.769 88.85 683.669 90.05C688.069 92.65 692.719 94.55 697.619 95.75C702.519 96.95 707.669 97.55 713.069 97.55C720.969 97.55 726.719 96.25 730.319 93.65C733.919 90.95 735.719 87.5 735.719 83.3C735.719 79.8 734.419 77.05 731.819 75.05C729.319 73.05 724.969 71.4 718.769 70.1L702.269 66.65C692.769 64.65 685.669 61.3 680.969 56.6C676.369 51.8 674.069 45.5 674.069 37.7C674.069 32.8 675.069 28.35 677.069 24.35C679.069 20.35 681.869 16.9 685.469 14C689.169 11.1 693.519 8.9 698.519 7.39999C703.619 5.79999 709.219 4.99999 715.319 4.99999C721.319 4.99999 727.019 5.74999 732.419 7.24999C737.819 8.74999 742.669 10.95 746.969 13.85C748.569 14.95 749.619 16.3 750.119 17.9C750.719 19.5 750.869 21.1 750.569 22.7C750.269 24.2 749.569 25.5 748.469 26.6C747.369 27.7 745.969 28.35 744.269 28.55C742.669 28.75 740.819 28.25 738.719 27.05C735.019 24.95 731.269 23.45 727.469 22.55C723.669 21.65 719.569 21.2 715.169 21.2C710.569 21.2 706.619 21.85 703.319 23.15C700.019 24.45 697.469 26.3 695.669 28.7C693.969 31 693.119 33.75 693.119 36.95C693.119 40.55 694.319 43.45 696.719 45.65C699.119 47.75 703.219 49.4 709.019 50.6L725.369 54.05C735.269 56.15 742.619 59.45 747.419 63.95C752.319 68.45 754.769 74.45 754.769 81.95C754.769 86.75 753.769 91.1 751.769 95C749.869 98.9 747.069 102.25 743.369 105.05C739.769 107.85 735.419 110 730.319 111.5C725.219 113 719.469 113.75 713.069 113.75ZM196.272 263.75C191.872 263.75 187.472 263.4 183.072 262.7C178.672 262.1 174.522 261.15 170.622 259.85C166.722 258.45 163.222 256.75 160.122 254.75C158.322 253.55 157.072 252.1 156.372 250.4C155.672 248.7 155.422 247.05 155.622 245.45C155.922 243.75 156.572 242.3 157.572 241.1C158.672 239.8 160.022 239 161.622 238.7C163.222 238.4 164.972 238.85 166.872 240.05C171.272 242.65 175.922 244.55 180.822 245.75C185.722 246.95 190.872 247.55 196.272 247.55C204.172 247.55 209.922 246.25 213.522 243.65C217.122 240.95 218.922 237.5 218.922 233.3C218.922 229.8 217.622 227.05 215.022 225.05C212.522 223.05 208.172 221.4 201.972 220.1L185.472 216.65C175.972 214.65 168.872 211.3 164.172 206.6C159.572 201.8 157.272 195.5 157.272 187.7C157.272 182.8 158.272 178.35 160.272 174.35C162.272 170.35 165.072 166.9 168.672 164C172.372 161.1 176.722 158.9 181.722 157.4C186.822 155.8 192.422 155 198.522 155C204.522 155 210.222 155.75 215.622 157.25C221.022 158.75 225.872 160.95 230.172 163.85C231.772 164.95 232.822 166.3 233.322 167.9C233.922 169.5 234.072 171.1 233.772 172.7C233.472 174.2 232.772 175.5 231.672 176.6C230.572 177.7 229.172 178.35 227.472 178.55C225.872 178.75 224.022 178.25 221.922 177.05C218.222 174.95 214.472 173.45 210.672 172.55C206.872 171.65 202.772 171.2 198.372 171.2C193.772 171.2 189.822 171.85 186.522 173.15C183.222 174.45 180.672 176.3 178.872 178.7C177.172 181 176.322 183.75 176.322 186.95C176.322 190.55 177.522 193.45 179.922 195.65C182.322 197.75 186.422 199.4 192.222 200.6L208.572 204.05C218.472 206.15 225.822 209.45 230.622 213.95C235.522 218.45 237.972 224.45 237.972 231.95C237.972 236.75 236.972 241.1 234.972 245C233.072 248.9 230.272 252.25 226.572 255.05C222.972 257.85 218.622 260 213.522 261.5C208.422 263 202.672 263.75 196.272 263.75ZM264.051 263.45C260.951 263.45 258.551 262.6 256.851 260.9C255.251 259.1 254.451 256.65 254.451 253.55V165.2C254.451 162 255.251 159.55 256.851 157.85C258.551 156.15 260.951 155.3 264.051 155.3C267.151 155.3 269.501 156.15 271.101 157.85C272.801 159.55 273.651 162 273.651 165.2V200.6H328.101V165.2C328.101 162 328.901 159.55 330.501 157.85C332.201 156.15 334.601 155.3 337.701 155.3C340.801 155.3 343.151 156.15 344.751 157.85C346.451 159.55 347.301 162 347.301 165.2V253.55C347.301 256.65 346.451 259.1 344.751 260.9C343.151 262.6 340.801 263.45 337.701 263.45C334.601 263.45 332.201 262.6 330.501 260.9C328.901 259.1 328.101 256.65 328.101 253.55V216.65H273.651V253.55C273.651 256.65 272.851 259.1 271.251 260.9C269.651 262.6 267.251 263.45 264.051 263.45ZM380.667 262.25C377.367 262.25 374.817 261.4 373.017 259.7C371.317 257.9 370.467 255.35 370.467 252.05V166.7C370.467 163.4 371.317 160.9 373.017 159.2C374.817 157.4 377.367 156.5 380.667 156.5H434.217C436.717 156.5 438.617 157.15 439.917 158.45C441.317 159.75 442.017 161.6 442.017 164C442.017 166.5 441.317 168.45 439.917 169.85C438.617 171.15 436.717 171.8 434.217 171.8H388.917V200.9H430.917C433.517 200.9 435.467 201.55 436.767 202.85C438.067 204.15 438.717 206.05 438.717 208.55C438.717 211.05 438.067 212.95 436.767 214.25C435.467 215.55 433.517 216.2 430.917 216.2H388.917V246.95H434.217C436.717 246.95 438.617 247.6 439.917 248.9C441.317 250.2 442.017 252.1 442.017 254.6C442.017 257.1 441.317 259 439.917 260.3C438.617 261.6 436.717 262.25 434.217 262.25H380.667ZM469.719 262.25C466.619 262.25 464.219 261.4 462.519 259.7C460.819 257.9 459.969 255.45 459.969 252.35V165.8C459.969 162.6 460.769 160.2 462.369 158.6C464.069 156.9 466.469 156.05 469.569 156.05C472.669 156.05 475.019 156.9 476.619 158.6C478.319 160.2 479.169 162.6 479.169 165.8V245.9H522.669C525.369 245.9 527.419 246.6 528.819 248C530.319 249.4 531.069 251.4 531.069 254C531.069 256.6 530.319 258.65 528.819 260.15C527.419 261.55 525.369 262.25 522.669 262.25H469.719ZM554.097 263.45C550.997 263.45 548.547 262.6 546.747 260.9C545.047 259.1 544.197 256.55 544.197 253.25V166.7C544.197 163.4 545.047 160.9 546.747 159.2C548.547 157.4 551.097 156.5 554.397 156.5H606.747C609.347 156.5 611.297 157.15 612.597 158.45C613.897 159.75 614.547 161.6 614.547 164C614.547 166.5 613.897 168.45 612.597 169.85C611.297 171.15 609.347 171.8 606.747 171.8H563.397V201.65H603.597C606.097 201.65 607.997 202.3 609.297 203.6C610.697 204.9 611.397 206.75 611.397 209.15C611.397 211.65 610.697 213.6 609.297 215C607.997 216.3 606.097 216.95 603.597 216.95H563.397V253.25C563.397 260.05 560.297 263.45 554.097 263.45Z" fill="#70926E"/>
<path d="M44.9 110.9L41.163 114.222L41.2606 114.332L41.3645 114.436L44.9 110.9ZM42.5 22.55H47.5V17.55H42.5V22.55ZM7.10001 20.45L3.44473 23.8616L3.56238 23.9876L3.68842 24.1053L7.10001 20.45ZM7.10001 8.59999L10.5023 12.264L10.5116 12.2553L7.10001 8.59999ZM96.95 8.59999L93.4145 12.1355L93.5406 12.2616L93.6754 12.3784L96.95 8.59999ZM61.7 22.55V17.55H56.7V22.55H61.7ZM59.3 110.9L62.941 114.327L62.9898 114.275L63.0371 114.222L59.3 110.9ZM52.1 113.45V108.45C49.9249 108.45 48.9479 107.877 48.4355 107.364L44.9 110.9L41.3645 114.436C44.2521 117.323 48.0751 118.45 52.1 118.45V113.45ZM44.9 110.9L48.6371 107.578C48.0624 106.932 47.5 105.787 47.5 103.55H42.5H37.5C37.5 107.513 38.5376 111.268 41.163 114.222L44.9 110.9ZM42.5 103.55H47.5V22.55H42.5H37.5V103.55H42.5ZM42.5 22.55V17.55H13.25V22.55V27.55H42.5V22.55ZM13.25 22.55V17.55C11.5644 17.55 10.857 17.1171 10.5116 16.7947L7.10001 20.45L3.68842 24.1053C6.34302 26.5829 9.73561 27.55 13.25 27.55V22.55ZM7.10001 20.45L10.7553 17.0384C10.3997 16.6574 10 15.9751 10 14.45H5.00002H1.52588e-05C1.52588e-05 17.9249 1.00032 21.2426 3.44473 23.8616L7.10001 20.45ZM5.00002 14.45H10C10 12.7197 10.4485 12.3139 10.5023 12.264L7.10001 8.59999L3.69775 4.93603C0.951508 7.48612 1.52588e-05 10.9803 1.52588e-05 14.45H5.00002ZM7.10001 8.59999L10.5116 12.2553C10.857 11.9329 11.5644 11.5 13.25 11.5V6.49999V1.49999C9.73561 1.49999 6.34302 2.46709 3.68842 4.94472L7.10001 8.59999ZM13.25 6.49999V11.5H90.95V6.49999V1.49999H13.25V6.49999ZM90.95 6.49999V11.5C92.6553 11.5 93.2185 11.9396 93.4145 12.1355L96.95 8.59999L100.486 5.06446C97.8815 2.46039 94.4447 1.49999 90.95 1.49999V6.49999ZM96.95 8.59999L93.6754 12.3784C93.7636 12.4549 94.2 12.822 94.2 14.45H99.2H104.2C104.2 10.878 103.136 7.34506 100.225 4.82155L96.95 8.59999ZM99.2 14.45H94.2C94.2 15.8787 93.8108 16.5181 93.4145 16.9145L96.95 20.45L100.486 23.9855C103.089 21.3819 104.2 18.0213 104.2 14.45H99.2ZM96.95 20.45L93.4145 16.9145C93.2185 17.1104 92.6553 17.55 90.95 17.55V22.55V27.55C94.4447 27.55 97.8815 26.5896 100.486 23.9855L96.95 20.45ZM90.95 22.55V17.55H61.7V22.55V27.55H90.95V22.55ZM61.7 22.55H56.7V103.55H61.7H66.7V22.55H61.7ZM61.7 103.55H56.7C56.7 105.787 56.1376 106.932 55.563 107.578L59.3 110.9L63.0371 114.222C65.6624 111.268 66.7 107.513 66.7 103.55H61.7ZM59.3 110.9L55.659 107.473C55.3132 107.841 54.4492 108.45 52.1 108.45V113.45V118.45C56.1508 118.45 60.0868 117.359 62.941 114.327L59.3 110.9ZM124.269 107L121.721 111.302L121.734 111.31L121.746 111.317L124.269 107ZM106.569 88.1L102.119 90.3794L102.124 90.3905L102.13 90.4016L106.569 88.1ZM103.869 36.95L108.568 38.6587L108.572 38.6474L108.576 38.6361L103.869 36.95ZM114.069 19.85L110.421 16.4303L110.419 16.4329L114.069 19.85ZM130.119 8.9L131.989 13.5372L132.007 13.5296L132.026 13.5219L130.119 8.9ZM177.969 11.75L175.421 16.0524L175.442 16.0649L175.464 16.0771L177.969 11.75ZM195.669 30.5L200.108 28.1984V28.1984L195.669 30.5ZM198.369 81.65L193.662 79.9639V79.9639L198.369 81.65ZM188.019 98.9L184.371 95.4803L184.352 95.5007L184.333 95.5214L188.019 98.9ZM171.969 110L173.839 114.637L173.857 114.63L173.876 114.622L171.969 110ZM167.619 92.75L164.887 88.5619L164.866 88.5757L164.845 88.5897L167.619 92.75ZM178.119 79.7L173.54 77.6917L173.525 77.7256L173.511 77.7597L178.119 79.7ZM173.769 31.4L169.87 34.5307L169.884 34.5485L169.899 34.5662L173.769 31.4ZM134.619 26L137.285 30.2296L137.318 30.2091L137.35 30.188L134.619 26ZM123.969 38.9L119.39 36.8917L119.381 36.911L119.373 36.9304L123.969 38.9ZM128.469 87.2L132.362 84.0624V84.0624L128.469 87.2ZM151.119 113.75V108.75C141.676 108.75 133.622 106.675 126.792 102.683L124.269 107L121.746 111.317C130.316 116.325 140.162 118.75 151.119 118.75V113.75ZM124.269 107L126.816 102.698C120.049 98.6907 114.792 93.0965 111.008 85.7984L106.569 88.1L102.13 90.4016C106.746 99.3035 113.289 106.309 121.721 111.302L124.269 107ZM106.569 88.1L111.019 85.8206C107.244 78.4505 105.269 69.66 105.269 59.3H100.269H95.2688C95.2688 70.94 97.4935 81.3495 102.119 90.3794L106.569 88.1ZM100.269 59.3H105.269C105.269 51.4792 106.399 44.6215 108.568 38.6587L103.869 36.95L99.1698 35.2413C96.5381 42.4785 95.2688 50.5208 95.2688 59.3H100.269ZM103.869 36.95L108.576 38.6361C110.77 32.5111 113.833 27.4181 117.719 23.2671L114.069 19.85L110.419 16.4329C105.505 21.6819 101.768 27.9888 99.1617 35.2639L103.869 36.95ZM114.069 19.85L117.716 23.2697C121.711 19.0086 126.452 15.7699 131.989 13.5372L130.119 8.9L128.249 4.26279C121.386 7.03008 115.426 11.0914 110.421 16.4303L114.069 19.85ZM130.119 8.9L132.026 13.5219C137.648 11.2019 143.989 9.99999 151.119 9.99999V4.99999V-4.76837e-06C142.849 -4.76837e-06 135.19 1.3981 128.211 4.27813L130.119 8.9ZM151.119 4.99999V9.99999C160.673 9.99999 168.713 12.0802 175.421 16.0524L177.969 11.75L180.516 7.44762C172.025 2.41982 162.164 -4.76837e-06 151.119 -4.76837e-06V4.99999ZM177.969 11.75L175.464 16.0771C182.206 19.9807 187.45 25.5124 191.23 32.8016L195.669 30.5L200.108 28.1984C195.487 19.2875 188.931 12.3193 180.474 7.42286L177.969 11.75ZM195.669 30.5L191.23 32.8016C194.993 40.0584 196.969 48.7879 196.969 59.15H201.969H206.969C206.969 47.5121 204.745 37.1415 200.108 28.1984L195.669 30.5ZM201.969 59.15H196.969C196.969 66.9689 195.839 73.8866 193.662 79.9639L198.369 81.65L203.076 83.3361C205.699 76.0134 206.969 67.931 206.969 59.15H201.969ZM198.369 81.65L193.662 79.9639C191.473 86.0728 188.366 91.2192 184.371 95.4803L188.019 98.9L191.666 102.32C196.672 96.9808 200.464 90.6272 203.076 83.3361L198.369 81.65ZM188.019 98.9L184.333 95.5214C180.451 99.7566 175.717 103.044 170.061 105.378L171.969 110L173.876 114.622C180.82 111.756 186.787 107.643 191.705 102.279L188.019 98.9ZM171.969 110L170.099 105.363C164.576 107.59 158.274 108.75 151.119 108.75V113.75V118.75C159.363 118.75 166.961 117.41 173.839 114.637L171.969 110ZM151.119 97.25V102.25C158.404 102.25 164.917 100.56 170.392 96.9102L167.619 92.75L164.845 88.5897C161.32 90.9399 156.834 92.25 151.119 92.25V97.25ZM167.619 92.75L170.35 96.938C175.889 93.3257 179.99 88.1398 182.727 81.6403L178.119 79.7L173.511 77.7597C171.447 82.6602 168.549 86.1743 164.887 88.5619L167.619 92.75ZM178.119 79.7L182.698 81.7083C185.539 75.2292 186.869 67.7119 186.869 59.3H181.869H176.869C176.869 66.6881 175.698 72.7707 173.54 77.6917L178.119 79.7ZM181.869 59.3H186.869C186.869 46.6085 184.017 36.0294 177.639 28.2338L173.769 31.4L169.899 34.5662C174.321 39.9706 176.869 47.9915 176.869 59.3H181.869ZM173.769 31.4L177.667 28.2693C171.262 20.2929 162.166 16.5 151.119 16.5V21.5V26.5C159.672 26.5 165.675 29.3071 169.87 34.5307L173.769 31.4ZM151.119 21.5V16.5C143.913 16.5 137.427 18.1992 131.887 21.8119L134.619 26L137.35 30.188C141.01 27.8008 145.525 26.5 151.119 26.5V21.5ZM134.619 26L131.952 21.7704C126.389 25.2774 122.231 30.4132 119.39 36.8917L123.969 38.9L128.548 40.9083C130.706 35.9867 133.648 32.5226 137.285 30.2296L134.619 26ZM123.969 38.9L119.373 36.9304C116.637 43.3147 115.369 50.8246 115.369 59.3H120.369H125.369C125.369 51.7753 126.501 45.6852 128.564 40.8696L123.969 38.9ZM120.369 59.3H115.369C115.369 71.9093 118.228 82.4623 124.576 90.3376L128.469 87.2L132.362 84.0624C127.909 78.5377 125.369 70.4907 125.369 59.3H120.369ZM128.469 87.2L124.576 90.3376C131.054 98.3749 140.124 102.25 151.119 102.25V97.25V92.25C142.714 92.25 136.684 89.4251 132.362 84.0624L128.469 87.2ZM242.947 110.9L239.21 114.222L239.307 114.332L239.411 114.436L242.947 110.9ZM240.547 22.55H245.547V17.55H240.547V22.55ZM205.147 20.45L201.492 23.8616L201.609 23.9876L201.735 24.1053L205.147 20.45ZM205.147 8.59999L208.549 12.264L208.558 12.2553L205.147 8.59999ZM294.997 8.59999L291.461 12.1355L291.587 12.2616L291.722 12.3784L294.997 8.59999ZM259.747 22.55V17.55H254.747V22.55H259.747ZM257.347 110.9L260.988 114.327L261.037 114.275L261.084 114.222L257.347 110.9ZM250.147 113.45V108.45C247.972 108.45 246.995 107.877 246.482 107.364L242.947 110.9L239.411 114.436C242.299 117.323 246.122 118.45 250.147 118.45V113.45ZM242.947 110.9L246.684 107.578C246.109 106.932 245.547 105.787 245.547 103.55H240.547H235.547C235.547 107.513 236.585 111.268 239.21 114.222L242.947 110.9ZM240.547 103.55H245.547V22.55H240.547H235.547V103.55H240.547ZM240.547 22.55V17.55H211.297V22.55V27.55H240.547V22.55ZM211.297 22.55V17.55C209.611 17.55 208.904 17.1171 208.558 16.7947L205.147 20.45L201.735 24.1053C204.39 26.5829 207.783 27.55 211.297 27.55V22.55ZM205.147 20.45L208.802 17.0384C208.447 16.6574 208.047 15.9751 208.047 14.45H203.047H198.047C198.047 17.9249 199.047 21.2426 201.492 23.8616L205.147 20.45ZM203.047 14.45H208.047C208.047 12.7197 208.495 12.3139 208.549 12.264L205.147 8.59999L201.745 4.93603C198.998 7.48612 198.047 10.9803 198.047 14.45H203.047ZM205.147 8.59999L208.558 12.2553C208.904 11.9329 209.611 11.5 211.297 11.5V6.49999V1.49999C207.783 1.49999 204.39 2.46709 201.735 4.94472L205.147 8.59999ZM211.297 6.49999V11.5H288.997V6.49999V1.49999H211.297V6.49999ZM288.997 6.49999V11.5C290.702 11.5 291.265 11.9396 291.461 12.1355L294.997 8.59999L298.532 5.06446C295.928 2.46039 292.492 1.49999 288.997 1.49999V6.49999ZM294.997 8.59999L291.722 12.3784C291.81 12.4549 292.247 12.822 292.247 14.45H297.247H302.247C302.247 10.878 301.183 7.34506 298.272 4.82155L294.997 8.59999ZM297.247 14.45H292.247C292.247 15.8787 291.858 16.5181 291.461 16.9145L294.997 20.45L298.532 23.9855C301.136 21.3819 302.247 18.0213 302.247 14.45H297.247ZM294.997 20.45L291.461 16.9145C291.265 17.1104 290.702 17.55 288.997 17.55V22.55V27.55C292.492 27.55 295.928 26.5896 298.532 23.9855L294.997 20.45ZM288.997 22.55V17.55H259.747V22.55V27.55H288.997V22.55ZM259.747 22.55H254.747V103.55H259.747H264.747V22.55H259.747ZM259.747 103.55H254.747C254.747 105.787 254.185 106.932 253.61 107.578L257.347 110.9L261.084 114.222C263.709 111.268 264.747 107.513 264.747 103.55H259.747ZM257.347 110.9L253.706 107.473C253.36 107.841 252.496 108.45 250.147 108.45V113.45V118.45C254.198 118.45 258.134 117.359 260.988 114.327L257.347 110.9ZM322.316 107L319.768 111.302L319.78 111.31L319.793 111.317L322.316 107ZM304.616 88.1L300.165 90.3794L300.171 90.3905L300.177 90.4016L304.616 88.1ZM301.916 36.95L306.615 38.6587L306.619 38.6474L306.623 38.6361L301.916 36.95ZM312.116 19.85L308.468 16.4303L308.466 16.4329L312.116 19.85ZM328.166 8.9L330.035 13.5372L330.054 13.5296L330.073 13.5219L328.166 8.9ZM376.016 11.75L373.468 16.0524L373.489 16.0649L373.51 16.0771L376.016 11.75ZM393.716 30.5L398.154 28.1984V28.1984L393.716 30.5ZM396.416 81.65L391.708 79.9639V79.9639L396.416 81.65ZM386.066 98.9L382.418 95.4803L382.399 95.5007L382.38 95.5214L386.066 98.9ZM370.016 110L371.885 114.637L371.904 114.63L371.923 114.622L370.016 110ZM365.666 92.75L362.934 88.5619L362.913 88.5757L362.892 88.5897L365.666 92.75ZM376.166 79.7L371.587 77.6917L371.572 77.7256L371.557 77.7597L376.166 79.7ZM371.816 31.4L367.917 34.5307L367.931 34.5485L367.946 34.5662L371.816 31.4ZM332.666 26L335.332 30.2296L335.365 30.2091L335.397 30.188L332.666 26ZM322.016 38.9L317.437 36.8917L317.428 36.911L317.42 36.9304L322.016 38.9ZM326.516 87.2L330.409 84.0624V84.0624L326.516 87.2ZM349.166 113.75V108.75C339.723 108.75 331.668 106.675 324.838 102.683L322.316 107L319.793 111.317C328.363 116.325 338.209 118.75 349.166 118.75V113.75ZM322.316 107L324.863 102.698C318.096 98.6907 312.839 93.0965 309.054 85.7984L304.616 88.1L300.177 90.4016C304.793 99.3035 311.335 106.309 319.768 111.302L322.316 107ZM304.616 88.1L309.066 85.8206C305.291 78.4505 303.316 69.66 303.316 59.3H298.316H293.316C293.316 70.94 295.54 81.3495 300.165 90.3794L304.616 88.1ZM298.316 59.3H303.316C303.316 51.4792 304.446 44.6215 306.615 38.6587L301.916 36.95L297.217 35.2413C294.585 42.4785 293.316 50.5208 293.316 59.3H298.316ZM301.916 36.95L306.623 38.6361C308.817 32.5111 311.88 27.4181 315.766 23.2671L312.116 19.85L308.466 16.4329C303.552 21.6819 299.814 27.9888 297.209 35.2639L301.916 36.95ZM312.116 19.85L315.763 23.2697C319.758 19.0086 324.498 15.7699 330.035 13.5372L328.166 8.9L326.296 4.26279C319.433 7.03008 313.473 11.0914 308.468 16.4303L312.116 19.85ZM328.166 8.9L330.073 13.5219C335.695 11.2019 342.035 9.99999 349.166 9.99999V4.99999V-4.76837e-06C340.896 -4.76837e-06 333.237 1.3981 326.258 4.27813L328.166 8.9ZM349.166 4.99999V9.99999C358.72 9.99999 366.76 12.0802 373.468 16.0524L376.016 11.75L378.563 7.44762C370.072 2.41982 360.211 -4.76837e-06 349.166 -4.76837e-06V4.99999ZM376.016 11.75L373.51 16.0771C380.253 19.9807 385.497 25.5124 389.277 32.8016L393.716 30.5L398.154 28.1984C393.534 19.2875 386.978 12.3193 378.521 7.42286L376.016 11.75ZM393.716 30.5L389.277 32.8016C393.04 40.0584 395.016 48.7879 395.016 59.15H400.016H405.016C405.016 47.5121 402.792 37.1415 398.154 28.1984L393.716 30.5ZM400.016 59.15H395.016C395.016 66.9689 393.885 73.8866 391.708 79.9639L396.416 81.65L401.123 83.3361C403.746 76.0134 405.016 67.931 405.016 59.15H400.016ZM396.416 81.65L391.708 79.9639C389.52 86.0728 386.413 91.2192 382.418 95.4803L386.066 98.9L389.713 102.32C394.719 96.9808 398.511 90.6272 401.123 83.3361L396.416 81.65ZM386.066 98.9L382.38 95.5214C378.498 99.7566 373.764 103.044 368.108 105.378L370.016 110L371.923 114.622C378.867 111.756 384.834 107.643 389.751 102.279L386.066 98.9ZM370.016 110L368.146 105.363C362.623 107.59 356.321 108.75 349.166 108.75V113.75V118.75C357.41 118.75 365.008 117.41 371.885 114.637L370.016 110ZM349.166 97.25V102.25C356.451 102.25 362.964 100.56 368.439 96.9102L365.666 92.75L362.892 88.5897C359.367 90.9399 354.881 92.25 349.166 92.25V97.25ZM365.666 92.75L368.397 96.938C373.936 93.3257 378.037 88.1398 380.774 81.6403L376.166 79.7L371.557 77.7597C369.494 82.6602 366.595 86.1743 362.934 88.5619L365.666 92.75ZM376.166 79.7L380.745 81.7083C383.586 75.2292 384.916 67.7119 384.916 59.3H379.916H374.916C374.916 66.6881 373.745 72.7707 371.587 77.6917L376.166 79.7ZM379.916 59.3H384.916C384.916 46.6085 382.064 36.0294 375.685 28.2338L371.816 31.4L367.946 34.5662C372.368 39.9706 374.916 47.9915 374.916 59.3H379.916ZM371.816 31.4L375.714 28.2693C369.309 20.2929 360.213 16.5 349.166 16.5V21.5V26.5C357.718 26.5 363.722 29.3071 367.917 34.5307L371.816 31.4ZM349.166 21.5V16.5C341.96 16.5 335.474 18.1992 329.934 21.8119L332.666 26L335.397 30.188C339.057 27.8008 343.572 26.5 349.166 26.5V21.5ZM332.666 26L329.999 21.7704C324.436 25.2774 320.278 30.4132 317.437 36.8917L322.016 38.9L326.595 40.9083C328.753 35.9867 331.695 32.5226 335.332 30.2296L332.666 26ZM322.016 38.9L317.42 36.9304C314.684 43.3147 313.416 50.8246 313.416 59.3H318.416H323.416C323.416 51.7753 324.548 45.6852 326.611 40.8696L322.016 38.9ZM318.416 59.3H313.416C313.416 71.9093 316.275 82.4623 322.623 90.3376L326.516 87.2L330.409 84.0624C325.956 78.5377 323.416 70.4907 323.416 59.3H318.416ZM326.516 87.2L322.623 90.3376C329.1 98.3749 338.171 102.25 349.166 102.25V97.25V92.25C340.76 92.25 334.731 89.4251 330.409 84.0624L326.516 87.2ZM421.939 110.9L418.202 114.222L418.3 114.332L418.404 114.436L421.939 110.9ZM422.089 9.05L425.516 12.691L425.571 12.6391L425.625 12.5855L422.089 9.05ZM492.289 14.9L488.967 18.637L488.984 18.6519L489.001 18.6666L492.289 14.9ZM497.389 54.95L493.134 52.3245L493.113 52.3576L493.094 52.391L497.389 54.95ZM485.089 65.75L487.19 70.2873V70.2873L485.089 65.75ZM465.439 69.5L461.152 66.9275L456.608 74.5H465.439V69.5ZM466.789 67.25V62.25H463.958L462.502 64.6775L466.789 67.25ZM482.389 70.25L479.616 74.4102L479.647 74.4311L479.678 74.4515L482.389 70.25ZM490.489 79.7L486.08 82.0583L486.084 82.0663L486.089 82.0743L490.489 79.7ZM501.739 100.55L497.339 102.924L497.368 102.978L497.398 103.031L501.739 100.55ZM503.389 106.7L508.383 106.95L503.389 106.7ZM501.139 111.65L504.393 115.446L504.469 115.382L504.541 115.314L501.139 111.65ZM488.389 111.8L485.506 115.885L485.588 115.943L485.673 115.998L488.389 111.8ZM483.889 106.4L488.286 104.019L488.283 104.014L483.889 106.4ZM468.739 78.5L464.32 80.8394L464.333 80.8628L464.345 80.886L468.739 78.5ZM462.289 71.75L460.053 76.2221L460.163 76.2771L460.275 76.3266L462.289 71.75ZM438.739 69.95V64.95H433.739V69.95H438.739ZM436.339 110.9L439.98 114.327L440.029 114.275L440.076 114.222L436.339 110.9ZM438.739 55.7H433.739V60.7H438.739V55.7ZM477.739 51.5L480.863 55.4043L480.869 55.3991L480.876 55.3938L477.739 51.5ZM477.739 26L474.549 29.8501L474.608 29.8994L474.669 29.9468L477.739 26ZM438.739 21.65V16.65H433.739V21.65H438.739ZM429.139 113.45V108.45C426.964 108.45 425.987 107.877 425.475 107.364L421.939 110.9L418.404 114.436C421.291 117.323 425.114 118.45 429.139 118.45V113.45ZM421.939 110.9L425.676 107.578C425.101 106.932 424.539 105.787 424.539 103.55H419.539H414.539C414.539 107.513 415.577 111.268 418.202 114.222L421.939 110.9ZM419.539 103.55H424.539V16.25H419.539H414.539V103.55H419.539ZM419.539 16.25H424.539C424.539 13.9008 425.148 13.0368 425.516 12.691L422.089 9.05L418.662 5.40899C415.63 8.2632 414.539 12.1992 414.539 16.25H419.539ZM422.089 9.05L425.625 12.5855C426.137 12.0732 427.114 11.5 429.289 11.5V6.49999V1.49999C425.264 1.49999 421.441 2.62681 418.554 5.51446L422.089 9.05ZM429.289 6.49999V11.5H465.439V6.49999V1.49999H429.289V6.49999ZM465.439 6.49999V11.5C476.277 11.5 483.877 14.1128 488.967 18.637L492.289 14.9L495.611 11.1629C488.101 4.48721 477.801 1.49999 465.439 1.49999V6.49999ZM492.289 14.9L489.001 18.6666C494 23.0308 496.739 29.2841 496.739 38.15H501.739H506.739C506.739 27.0158 503.178 17.7692 495.577 11.1334L492.289 14.9ZM501.739 38.15H496.739C496.739 43.8889 495.466 48.5441 493.134 52.3245L497.389 54.95L501.644 57.5755C505.112 51.9559 506.739 45.4111 506.739 38.15H501.739ZM497.389 54.95L493.094 52.391C490.855 56.1492 487.558 59.097 482.988 61.2127L485.089 65.75L487.19 70.2873C493.42 67.403 498.324 63.1508 501.685 57.509L497.389 54.95ZM485.089 65.75L482.988 61.2127C478.41 63.3321 472.619 64.5 465.439 64.5V69.5V74.5C473.66 74.5 480.968 73.1679 487.19 70.2873L485.089 65.75ZM465.439 69.5L469.727 72.0725L471.077 69.8225L466.789 67.25L462.502 64.6775L461.152 66.9275L465.439 69.5ZM466.789 67.25V72.25H471.739V67.25V62.25H466.789V67.25ZM471.739 67.25V72.25C474.992 72.25 477.546 73.0305 479.616 74.4102L482.389 70.25L485.163 66.0898C481.232 63.4695 476.687 62.25 471.739 62.25V67.25ZM482.389 70.25L479.678 74.4515C481.872 75.8666 484.056 78.274 486.08 82.0583L490.489 79.7L494.898 77.3417C492.322 72.526 489.106 68.6334 485.1 66.0485L482.389 70.25ZM490.489 79.7L486.089 82.0743L497.339 102.924L501.739 100.55L506.139 98.1757L494.889 77.3257L490.489 79.7ZM501.739 100.55L497.398 103.031C498.223 104.475 498.439 105.586 498.395 106.45L503.389 106.7L508.383 106.95C508.54 103.814 507.655 100.825 506.08 98.0693L501.739 100.55ZM503.389 106.7L498.395 106.45C498.357 107.218 498.132 107.619 497.737 107.986L501.139 111.65L504.541 115.314C506.946 113.081 508.221 110.182 508.383 106.95L503.389 106.7ZM501.139 111.65L497.885 107.854C497.731 107.986 497.036 108.45 494.989 108.45V113.45V118.45C498.342 118.45 501.747 117.714 504.393 115.446L501.139 111.65ZM494.989 113.45V108.45C492.939 108.45 491.768 108.031 491.105 107.602L488.389 111.8L485.673 115.998C488.41 117.769 491.639 118.45 494.989 118.45V113.45ZM488.389 111.8L491.273 107.715C490.366 107.075 489.329 105.945 488.286 104.019L483.889 106.4L479.493 108.781C481.049 111.655 483.012 114.125 485.506 115.885L488.389 111.8ZM483.889 106.4L488.283 104.014L473.133 76.114L468.739 78.5L464.345 80.886L479.495 108.786L483.889 106.4ZM468.739 78.5L473.158 76.1606C471.042 72.1637 468.182 68.8802 464.303 67.1734L462.289 71.75L460.275 76.3266C461.396 76.8198 462.836 78.0363 464.32 80.8394L468.739 78.5ZM462.289 71.75L464.525 67.2779C461.203 65.617 457.263 64.95 452.989 64.95V69.95V74.95C456.315 74.95 458.575 75.483 460.053 76.2221L462.289 71.75ZM452.989 69.95V64.95H438.739V69.95V74.95H452.989V69.95ZM438.739 69.95H433.739V103.55H438.739H443.739V69.95H438.739ZM438.739 103.55H433.739C433.739 105.787 433.177 106.932 432.602 107.578L436.339 110.9L440.076 114.222C442.701 111.268 443.739 107.513 443.739 103.55H438.739ZM436.339 110.9L432.698 107.473C432.352 107.841 431.488 108.45 429.139 108.45V113.45V118.45C433.19 118.45 437.126 117.359 439.98 114.327L436.339 110.9ZM438.739 55.7V60.7H462.139V55.7V50.7H438.739V55.7ZM462.139 55.7V60.7C469.594 60.7 476.11 59.2068 480.863 55.4043L477.739 51.5L474.616 47.5957C472.369 49.3932 468.484 50.7 462.139 50.7V55.7ZM477.739 51.5L480.876 55.3938C485.926 51.3254 488.139 45.4251 488.139 38.6H483.139H478.139C478.139 43.1748 476.752 45.8746 474.602 47.6062L477.739 51.5ZM483.139 38.6H488.139C488.139 31.8468 485.904 26.0165 480.809 22.0532L477.739 26L474.669 29.9468C476.774 31.5835 478.139 34.1532 478.139 38.6H483.139ZM477.739 26L480.929 22.1499C476.17 18.2067 469.626 16.65 462.139 16.65V21.65V26.65C468.452 26.65 472.308 27.9933 474.549 29.8501L477.739 26ZM462.139 21.65V16.65H438.739V21.65V26.65H462.139V21.65ZM438.739 21.65H433.739V55.7H438.739H443.739V21.65H438.739ZM542.189 107L539.641 111.302L539.654 111.31L539.666 111.317L542.189 107ZM524.489 88.1L520.038 90.3794L520.044 90.3905L520.05 90.4016L524.489 88.1ZM521.789 36.95L526.488 38.6587L526.492 38.6474L526.496 38.6361L521.789 36.95ZM531.989 19.85L528.341 16.4303L528.339 16.4329L531.989 19.85ZM548.039 8.9L549.909 13.5372L549.927 13.5296L549.946 13.5219L548.039 8.9ZM595.889 11.75L593.341 16.0524L593.362 16.0649L593.383 16.0771L595.889 11.75ZM613.589 30.5L618.027 28.1984V28.1984L613.589 30.5ZM616.289 81.65L611.582 79.9639V79.9639L616.289 81.65ZM605.939 98.9L602.291 95.4803L602.272 95.5007L602.253 95.5214L605.939 98.9ZM589.889 110L591.759 114.637L591.777 114.63L591.796 114.622L589.889 110ZM585.539 92.75L582.807 88.5619L582.786 88.5757L582.765 88.5897L585.539 92.75ZM596.039 79.7L591.46 77.6917L591.445 77.7256L591.43 77.7597L596.039 79.7ZM591.689 31.4L587.79 34.5307L587.804 34.5485L587.819 34.5662L591.689 31.4ZM552.539 26L555.205 30.2296L555.238 30.2091L555.27 30.188L552.539 26ZM541.889 38.9L537.31 36.8917L537.301 36.911L537.293 36.9304L541.889 38.9ZM546.389 87.2L550.282 84.0624V84.0624L546.389 87.2ZM569.039 113.75V108.75C559.596 108.75 551.541 106.675 544.712 102.683L542.189 107L539.666 111.317C548.236 116.325 558.082 118.75 569.039 118.75V113.75ZM542.189 107L544.736 102.698C537.969 98.6907 532.712 93.0965 528.927 85.7984L524.489 88.1L520.05 90.4016C524.666 99.3035 531.208 106.309 539.641 111.302L542.189 107ZM524.489 88.1L528.939 85.8206C525.164 78.4505 523.189 69.66 523.189 59.3H518.189H513.189C513.189 70.94 515.413 81.3495 520.038 90.3794L524.489 88.1ZM518.189 59.3H523.189C523.189 51.4792 524.319 44.6215 526.488 38.6587L521.789 36.95L517.09 35.2413C514.458 42.4785 513.189 50.5208 513.189 59.3H518.189ZM521.789 36.95L526.496 38.6361C528.69 32.5111 531.753 27.4181 535.639 23.2671L531.989 19.85L528.339 16.4329C523.425 21.6819 519.688 27.9888 517.082 35.2639L521.789 36.95ZM531.989 19.85L535.636 23.2697C539.631 19.0086 544.371 15.7699 549.909 13.5372L548.039 8.9L546.169 4.26279C539.306 7.03008 533.346 11.0914 528.341 16.4303L531.989 19.85ZM548.039 8.9L549.946 13.5219C555.568 11.2019 561.909 9.99999 569.039 9.99999V4.99999V-4.76837e-06C560.769 -4.76837e-06 553.11 1.3981 546.131 4.27813L548.039 8.9ZM569.039 4.99999V9.99999C578.593 9.99999 586.633 12.0802 593.341 16.0524L595.889 11.75L598.436 7.44762C589.945 2.41982 580.084 -4.76837e-06 569.039 -4.76837e-06V4.99999ZM595.889 11.75L593.383 16.0771C600.126 19.9807 605.37 25.5124 609.15 32.8016L613.589 30.5L618.027 28.1984C613.407 19.2875 606.851 12.3193 598.394 7.42286L595.889 11.75ZM613.589 30.5L609.15 32.8016C612.913 40.0584 614.889 48.7879 614.889 59.15H619.889H624.889C624.889 47.5121 622.665 37.1415 618.027 28.1984L613.589 30.5ZM619.889 59.15H614.889C614.889 66.9689 613.759 73.8866 611.582 79.9639L616.289 81.65L620.996 83.3361C623.619 76.0134 624.889 67.931 624.889 59.15H619.889ZM616.289 81.65L611.582 79.9639C609.393 86.0728 606.286 91.2192 602.291 95.4803L605.939 98.9L609.586 102.32C614.592 96.9808 618.384 90.6272 620.996 83.3361L616.289 81.65ZM605.939 98.9L602.253 95.5214C598.371 99.7566 593.637 103.044 587.981 105.378L589.889 110L591.796 114.622C598.74 111.756 604.707 107.643 609.624 102.279L605.939 98.9ZM589.889 110L588.019 105.363C582.496 107.59 576.194 108.75 569.039 108.75V113.75V118.75C577.283 118.75 584.881 117.41 591.759 114.637L589.889 110ZM569.039 97.25V102.25C576.324 102.25 582.837 100.56 588.312 96.9102L585.539 92.75L582.765 88.5897C579.24 90.9399 574.754 92.25 569.039 92.25V97.25ZM585.539 92.75L588.27 96.938C593.809 93.3257 597.91 88.1398 600.647 81.6403L596.039 79.7L591.43 77.7597C589.367 82.6602 586.468 86.1743 582.807 88.5619L585.539 92.75ZM596.039 79.7L600.618 81.7083C603.459 75.2292 604.789 67.7119 604.789 59.3H599.789H594.789C594.789 66.6881 593.618 72.7707 591.46 77.6917L596.039 79.7ZM599.789 59.3H604.789C604.789 46.6085 601.937 36.0294 595.558 28.2338L591.689 31.4L587.819 34.5662C592.241 39.9706 594.789 47.9915 594.789 59.3H599.789ZM591.689 31.4L595.587 28.2693C589.182 20.2929 580.086 16.5 569.039 16.5V21.5V26.5C577.591 26.5 583.595 29.3071 587.79 34.5307L591.689 31.4ZM569.039 21.5V16.5C561.833 16.5 555.347 18.1992 549.807 21.8119L552.539 26L555.27 30.188C558.93 27.8008 563.445 26.5 569.039 26.5V21.5ZM552.539 26L549.872 21.7704C544.309 25.2774 540.151 30.4132 537.31 36.8917L541.889 38.9L546.468 40.9083C548.626 35.9867 551.568 32.5226 555.205 30.2296L552.539 26ZM541.889 38.9L537.293 36.9304C534.557 43.3147 533.289 50.8246 533.289 59.3H538.289H543.289C543.289 51.7753 544.421 45.6852 546.484 40.8696L541.889 38.9ZM538.289 59.3H533.289C533.289 71.9093 536.148 82.4623 542.496 90.3376L546.389 87.2L550.282 84.0624C545.829 78.5377 543.289 70.4907 543.289 59.3H538.289ZM546.389 87.2L542.496 90.3376C548.974 98.3749 558.044 102.25 569.039 102.25V97.25V92.25C560.634 92.25 554.604 89.4251 550.282 84.0624L546.389 87.2ZM648.28 43.25L644.428 40.0622L644.413 40.0795L644.399 40.097L648.28 43.25ZM644.08 45.95L643.419 40.9939L643.396 40.9969L643.373 41.0002L644.08 45.95ZM640.33 45.2L637.389 49.2437L637.514 49.335L637.645 49.4183L640.33 45.2ZM638.53 41.9L633.541 42.2326L633.542 42.2444L633.542 42.2562L638.53 41.9ZM640.48 37.1L644.339 40.2785L644.362 40.2512L644.384 40.2235L640.48 37.1ZM644.53 29.6L649.345 30.9482V30.9481L644.53 29.6ZM645.58 23L650.523 22.251L640.58 23H645.58ZM646.33 27.95V32.95H652.144L651.273 27.201L646.33 27.95ZM637.78 24.95L634.331 28.5707L634.373 28.6107L634.416 28.6497L637.78 24.95ZM637.63 8.9L641.165 12.4355L641.208 12.3924L641.25 12.3483L637.63 8.9ZM653.98 9.34999L650.139 12.5509L650.172 12.5913L650.207 12.6309L653.98 9.34999ZM656.23 26.9L651.32 25.9558L651.305 26.0327L651.292 26.11L656.23 26.9ZM653.68 34.85L649.145 32.7444L649.127 32.7817L649.111 32.8193L653.68 34.85ZM648.28 43.25L644.399 40.097C644.007 40.58 643.714 40.8144 643.551 40.9191C643.406 41.0121 643.371 41.0002 643.419 40.9939L644.08 45.95L644.741 50.9061C647.904 50.4844 650.352 48.6283 652.16 46.403L648.28 43.25ZM644.08 45.95L643.373 41.0002C643.173 41.0288 643.085 41.0119 643.073 41.0096C643.064 41.0078 643.06 41.0064 643.057 41.0051C643.053 41.0037 643.04 40.9979 643.014 40.9817L640.33 45.2L637.645 49.4183C639.841 50.8153 642.313 51.2531 644.787 50.8997L644.08 45.95ZM640.33 45.2L643.271 41.1563C643.263 41.1506 643.286 41.1666 643.325 41.2098C643.364 41.2539 643.407 41.3122 643.444 41.3807C643.526 41.5311 643.522 41.6156 643.517 41.5438L638.53 41.9L633.542 42.2562C633.744 45.073 635.053 47.5451 637.389 49.2437L640.33 45.2ZM638.53 41.9L643.519 41.5674C643.536 41.8227 643.377 41.447 644.339 40.2785L640.48 37.1L636.62 33.9215C634.782 36.153 633.324 38.9773 633.541 42.2326L638.53 41.9ZM640.48 37.1L644.384 40.2235C646.709 37.3177 648.426 34.2271 649.345 30.9482L644.53 29.6L639.715 28.2519C639.233 29.9729 638.251 31.8823 636.575 33.9765L640.48 37.1ZM644.53 29.6L649.345 30.9481C650.126 28.1577 650.58 25.4877 650.58 23H645.58H640.58C640.58 24.3123 640.334 26.0422 639.715 28.2519L644.53 29.6ZM645.58 23L640.636 23.749L641.386 28.699L646.33 27.95L651.273 27.201L650.523 22.251L645.58 23ZM646.33 27.95V22.95C643.84 22.95 642.263 22.2686 641.143 21.2503L637.78 24.95L634.416 28.6497C637.696 31.6314 641.82 32.95 646.33 32.95V27.95ZM637.78 24.95L641.228 21.3293C640.29 20.4363 639.63 19.1379 639.63 16.85H634.63H629.63C629.63 21.362 631.069 25.4637 634.331 28.5707L637.78 24.95ZM634.63 16.85H639.63C639.63 14.6374 640.259 13.3416 641.165 12.4355L637.63 8.9L634.094 5.36446C631 8.45844 629.63 12.4626 629.63 16.85H634.63ZM637.63 8.9L641.25 12.3483C642.143 11.4106 643.442 10.75 645.73 10.75V5.74999V0.749994C641.218 0.749994 637.116 2.18936 634.009 5.45173L637.63 8.9ZM645.73 5.74999V10.75C647.947 10.75 649.21 11.4369 650.139 12.5509L653.98 9.34999L657.821 6.14907C654.749 2.46311 650.512 0.749994 645.73 0.749994V5.74999ZM653.98 9.34999L650.207 12.6309C651.128 13.6902 651.98 15.68 651.98 19.4H656.98H661.98C661.98 14.32 660.832 9.60982 657.753 6.0691L653.98 9.34999ZM656.98 19.4H651.98C651.98 21.4526 651.766 23.6354 651.32 25.9558L656.23 26.9L661.14 27.8442C661.694 24.9645 661.98 22.1474 661.98 19.4H656.98ZM656.23 26.9L651.292 26.11C650.979 28.0684 650.291 30.2744 649.145 32.7444L653.68 34.85L658.215 36.9556C659.668 33.8256 660.68 30.7316 661.167 27.69L656.23 26.9ZM653.68 34.85L649.111 32.8193C648.138 35.007 646.612 37.4224 644.428 40.0622L648.28 43.25L652.132 46.4378C654.747 43.2776 656.821 40.093 658.249 36.8807L653.68 34.85ZM699.869 112.7L700.655 107.762L700.6 107.753L700.545 107.746L699.869 112.7ZM687.419 109.85L685.73 114.556L685.784 114.575L685.838 114.593L687.419 109.85ZM676.919 104.75L674.146 108.91L674.177 108.931L674.208 108.951L676.919 104.75ZM673.169 100.4L668.546 102.304V102.304L673.169 100.4ZM672.419 95.45L667.495 94.5811L667.473 94.705L667.458 94.8298L672.419 95.45ZM674.369 91.1L670.552 87.8703L670.54 87.8846L670.528 87.8991L674.369 91.1ZM678.419 88.7L679.341 93.6144V93.6144L678.419 88.7ZM683.669 90.05L680.999 94.2774L681.062 94.317L681.125 94.3546L683.669 90.05ZM730.319 93.65L733.247 97.7034L733.283 97.677L733.319 97.65L730.319 93.65ZM731.819 75.05L728.696 78.9543L728.733 78.9841L728.771 79.0131L731.819 75.05ZM718.769 70.1L719.795 65.2064L719.792 65.2058L718.769 70.1ZM702.269 66.65L701.239 71.5427L701.246 71.5442L702.269 66.65ZM680.969 56.6L677.359 60.0595L677.396 60.0979L677.434 60.1355L680.969 56.6ZM677.069 24.35L681.541 26.5861H681.541L677.069 24.35ZM685.469 14L682.385 10.0647L682.358 10.0853L682.333 10.1062L685.469 14ZM698.519 7.39999L699.956 12.1891L699.986 12.1801L700.016 12.1707L698.519 7.39999ZM732.419 7.24999L733.757 2.4324V2.4324L732.419 7.24999ZM746.969 13.85L749.802 9.72978L749.783 9.71713L749.765 9.70464L746.969 13.85ZM750.119 17.9L745.347 19.3914L745.388 19.5248L745.438 19.6556L750.119 17.9ZM750.569 22.7L755.472 23.6806L755.478 23.651L755.484 23.6214L750.569 22.7ZM744.269 28.55L743.685 23.5842L743.667 23.5864L743.649 23.5886L744.269 28.55ZM738.719 27.05L741.2 22.7088L741.194 22.7052L741.187 22.7016L738.719 27.05ZM727.469 22.55L726.317 27.4154V27.4154L727.469 22.55ZM703.319 23.15L705.152 27.802V27.802L703.319 23.15ZM695.669 28.7L691.669 25.7L691.659 25.714L691.648 25.728L695.669 28.7ZM696.719 45.65L693.341 49.3358L693.383 49.3748L693.427 49.4129L696.719 45.65ZM709.019 50.6L710.051 45.7077L710.042 45.7057L710.032 45.7037L709.019 50.6ZM725.369 54.05L726.407 49.1588L726.401 49.1577L725.369 54.05ZM747.419 63.95L743.999 67.5977L744.018 67.6153L744.037 67.6326L747.419 63.95ZM751.769 95L747.32 92.7184L747.297 92.764L747.274 92.8102L751.769 95ZM743.369 105.05L740.352 101.063L740.326 101.083L740.299 101.103L743.369 105.05ZM730.319 111.5L731.73 116.297V116.297L730.319 111.5ZM713.069 113.75V108.75C708.936 108.75 704.798 108.421 700.655 107.762L699.869 112.7L699.084 117.638C703.74 118.379 708.403 118.75 713.069 118.75V113.75ZM699.869 112.7L700.545 107.746C696.428 107.184 692.583 106.301 689 105.107L687.419 109.85L685.838 114.593C690.055 115.999 694.51 117.016 699.194 117.654L699.869 112.7ZM687.419 109.85L689.108 105.144C685.524 103.857 682.373 102.318 679.63 100.549L676.919 104.75L674.208 108.951C677.665 111.182 681.515 113.043 685.73 114.556L687.419 109.85ZM676.919 104.75L679.693 100.59C678.57 99.8417 678.051 99.1238 677.793 98.4962L673.169 100.4L668.546 102.304C669.687 105.076 671.668 107.258 674.146 108.91L676.919 104.75ZM673.169 100.4L677.793 98.4963C677.374 97.4808 677.302 96.6997 677.381 96.0702L672.419 95.45L667.458 94.8298C667.136 97.4003 667.564 99.9192 668.546 102.304L673.169 100.4ZM672.419 95.45L677.343 96.3189C677.508 95.3848 677.826 94.7626 678.21 94.3009L674.369 91.1L670.528 87.8991C668.913 89.8374 667.93 92.1152 667.495 94.5811L672.419 95.45ZM674.369 91.1L678.186 94.3297C678.58 93.8637 678.926 93.6921 679.341 93.6144L678.419 88.7L677.498 83.7856C674.712 84.3079 672.358 85.7363 670.552 87.8703L674.369 91.1ZM678.419 88.7L679.341 93.6144C679.346 93.6133 679.441 93.5919 679.686 93.655C679.952 93.7232 680.387 93.8905 680.999 94.2774L683.669 90.05L686.339 85.8226C683.781 84.2072 680.745 83.1768 677.498 83.7856L678.419 88.7ZM683.669 90.05L681.125 94.3546C685.942 97.2007 691.047 99.2884 696.43 100.606L697.619 95.75L698.808 90.8935C694.391 89.8116 690.196 88.0993 686.213 85.7454L683.669 90.05ZM697.619 95.75L696.43 100.606C701.745 101.908 707.296 102.55 713.069 102.55V97.55V92.55C708.042 92.55 703.293 91.9917 698.808 90.8935L697.619 95.75ZM713.069 97.55V102.55C721.299 102.55 728.354 101.237 733.247 97.7034L730.319 93.65L727.392 89.5966C725.085 91.2627 720.639 92.55 713.069 92.55V97.55ZM730.319 93.65L733.319 97.65C738.074 94.0842 740.719 89.2001 740.719 83.3H735.719H730.719C730.719 85.7999 729.765 87.8158 727.319 89.65L730.319 93.65ZM735.719 83.3H740.719C740.719 78.3682 738.791 74.1045 734.868 71.0869L731.819 75.05L728.771 79.0131C730.048 79.9955 730.719 81.2318 730.719 83.3H735.719ZM731.819 75.05L734.943 71.1457C731.481 68.3766 726.153 66.5394 719.795 65.2064L718.769 70.1L717.743 74.9936C723.786 76.2606 727.157 77.7234 728.696 78.9543L731.819 75.05ZM718.769 70.1L719.792 65.2058L703.292 61.7558L702.269 66.65L701.246 71.5442L717.746 74.9942L718.769 70.1ZM702.269 66.65L703.299 61.7572C694.335 59.87 688.271 56.8309 684.505 53.0645L680.969 56.6L677.434 60.1355C683.067 65.7691 691.203 69.43 701.239 71.5427L702.269 66.65ZM680.969 56.6L684.579 53.1405C681.024 49.4307 679.069 44.4499 679.069 37.7H674.069H669.069C669.069 46.5501 671.714 54.1693 677.359 60.0595L680.969 56.6ZM674.069 37.7H679.069C679.069 33.5007 679.921 29.8273 681.541 26.5861L677.069 24.35L672.597 22.1139C670.218 26.8727 669.069 32.0993 669.069 37.7H674.069ZM677.069 24.35L681.541 26.5861C683.209 23.2499 685.545 20.359 688.606 17.8938L685.469 14L682.333 10.1062C678.193 13.441 674.929 17.4501 672.597 22.1139L677.069 24.35ZM685.469 14L688.554 17.9353C691.711 15.4605 695.488 13.5296 699.956 12.1891L698.519 7.39999L697.082 2.61086C691.551 4.27041 686.627 6.73951 682.385 10.0647L685.469 14ZM698.519 7.39999L700.016 12.1707C704.569 10.7424 709.656 9.99999 715.319 9.99999V4.99999V-4.76837e-06C708.782 -4.76837e-06 702.67 0.857577 697.022 2.62926L698.519 7.39999ZM715.319 4.99999V9.99999C720.899 9.99999 726.146 10.6969 731.081 12.0676L732.419 7.24999L733.757 2.4324C727.892 0.803133 721.74 -4.76837e-06 715.319 -4.76837e-06V4.99999ZM732.419 7.24999L731.081 12.0676C736.004 13.4351 740.354 15.4198 744.173 17.9954L746.969 13.85L749.765 9.70464C744.984 6.48021 739.634 4.06492 733.757 2.4324L732.419 7.24999ZM746.969 13.85L744.137 17.9702C744.967 18.5408 745.232 19.0245 745.347 19.3914L750.119 17.9L754.892 16.4086C754.006 13.5755 752.172 11.3591 749.802 9.72978L746.969 13.85ZM750.119 17.9L745.438 19.6556C745.734 20.4456 745.778 21.1209 745.655 21.7786L750.569 22.7L755.484 23.6214C755.96 21.0791 755.705 18.5544 754.801 16.1444L750.119 17.9ZM750.569 22.7L745.666 21.7194C745.563 22.2342 745.348 22.6499 744.934 23.0645L748.469 26.6L752.005 30.1355C753.79 28.3501 754.975 26.1658 755.472 23.6806L750.569 22.7ZM748.469 26.6L744.934 23.0645C744.709 23.2887 744.387 23.5016 743.685 23.5842L744.269 28.55L744.853 33.5158C747.551 33.1984 750.029 32.1113 752.005 30.1355L748.469 26.6ZM744.269 28.55L743.649 23.5886C743.54 23.6022 742.807 23.6271 741.2 22.7088L738.719 27.05L736.238 31.3912C738.831 32.8729 741.798 33.8978 744.889 33.5114L744.269 28.55ZM738.719 27.05L741.187 22.7016C737.112 20.3886 732.922 18.703 728.621 17.6846L727.469 22.55L726.317 27.4154C729.617 28.197 732.926 29.5114 736.251 31.3984L738.719 27.05ZM727.469 22.55L728.621 17.6846C724.4 16.6847 719.909 16.2 715.169 16.2V21.2V26.2C719.229 26.2 722.939 26.6153 726.317 27.4154L727.469 22.55ZM715.169 21.2V16.2C710.119 16.2 705.515 16.9109 701.487 18.498L703.319 23.15L705.152 27.802C707.723 26.789 711.019 26.2 715.169 26.2V21.2ZM703.319 23.15L701.487 18.498C697.484 20.0748 694.119 22.4336 691.669 25.7L695.669 28.7L699.669 31.7C700.819 30.1664 702.554 28.8252 705.152 27.802L703.319 23.15ZM695.669 28.7L691.648 25.728C689.237 28.9898 688.119 32.8134 688.119 36.95H693.119H698.119C698.119 34.6866 698.701 33.0102 699.69 31.672L695.669 28.7ZM693.119 36.95H688.119C688.119 41.7867 689.792 46.0828 693.341 49.3358L696.719 45.65L700.098 41.9642C698.846 40.8172 698.119 39.3133 698.119 36.95H693.119ZM696.719 45.65L693.427 49.4129C696.823 52.3849 701.972 54.2479 708.006 55.4963L709.019 50.6L710.032 45.7037C704.466 44.5521 701.415 43.1151 700.012 41.8871L696.719 45.65ZM709.019 50.6L707.987 55.4923L724.337 58.9423L725.369 54.05L726.401 49.1577L710.051 45.7077L709.019 50.6ZM725.369 54.05L724.332 58.9412C733.781 60.9456 740.132 63.9717 743.999 67.5977L747.419 63.95L750.839 60.3023C745.107 54.9283 736.757 51.3544 726.407 49.1588L725.369 54.05ZM747.419 63.95L744.037 67.6326C747.769 71.0601 749.769 75.6528 749.769 81.95H754.769H759.769C759.769 73.2472 756.869 65.8399 750.801 60.2673L747.419 63.95ZM754.769 81.95H749.769C749.769 86.0334 748.924 89.5899 747.32 92.7184L751.769 95L756.218 97.2816C758.614 92.6101 759.769 87.4666 759.769 81.95H754.769ZM751.769 95L747.274 92.8102C745.742 95.9545 743.47 98.7037 740.352 101.063L743.369 105.05L746.386 109.037C750.669 105.796 753.996 101.846 756.264 97.1898L751.769 95ZM743.369 105.05L740.299 101.103C737.269 103.46 733.505 105.351 728.908 106.703L730.319 111.5L731.73 116.297C737.333 114.649 742.269 112.24 746.439 108.997L743.369 105.05ZM730.319 111.5L728.908 106.703C724.349 108.044 719.085 108.75 713.069 108.75V113.75V118.75C719.853 118.75 726.09 117.956 731.73 116.297L730.319 111.5ZM183.072 262.7L183.858 257.762L183.803 257.753L183.748 257.746L183.072 262.7ZM170.622 259.85L168.933 264.556L168.987 264.575L169.041 264.593L170.622 259.85ZM160.122 254.75L157.349 258.91L157.38 258.931L157.412 258.951L160.122 254.75ZM156.372 250.4L151.749 252.304V252.304L156.372 250.4ZM155.622 245.45L150.698 244.581L150.676 244.705L150.661 244.83L155.622 245.45ZM157.572 241.1L153.755 237.87L153.743 237.885L153.731 237.899L157.572 241.1ZM161.622 238.7L162.544 243.614V243.614L161.622 238.7ZM166.872 240.05L164.202 244.277L164.265 244.317L164.329 244.355L166.872 240.05ZM213.522 243.65L216.45 247.703L216.486 247.677L216.522 247.65L213.522 243.65ZM215.022 225.05L211.899 228.954L211.936 228.984L211.974 229.013L215.022 225.05ZM201.972 220.1L202.998 215.206L202.996 215.206L201.972 220.1ZM185.472 216.65L184.442 221.543L184.449 221.544L185.472 216.65ZM164.172 206.6L160.562 210.06L160.599 210.098L160.637 210.136L164.172 206.6ZM160.272 174.35L164.744 176.586V176.586L160.272 174.35ZM168.672 164L165.588 160.065L165.562 160.085L165.536 160.106L168.672 164ZM181.722 157.4L183.159 162.189L183.189 162.18L183.219 162.171L181.722 157.4ZM215.622 157.25L216.961 152.432V152.432L215.622 157.25ZM230.172 163.85L233.005 159.73L232.987 159.717L232.968 159.705L230.172 163.85ZM233.322 167.9L228.55 169.391L228.592 169.525L228.641 169.656L233.322 167.9ZM233.772 172.7L238.675 173.681L238.681 173.651L238.687 173.621L233.772 172.7ZM227.472 178.55L226.888 173.584L226.87 173.586L226.852 173.589L227.472 178.55ZM221.922 177.05L224.403 172.709L224.397 172.705L224.39 172.702L221.922 177.05ZM210.672 172.55L209.52 177.415V177.415L210.672 172.55ZM186.522 173.15L188.355 177.802V177.802L186.522 173.15ZM178.872 178.7L174.872 175.7L174.862 175.714L174.851 175.728L178.872 178.7ZM179.922 195.65L176.544 199.336L176.586 199.375L176.63 199.413L179.922 195.65ZM192.222 200.6L193.255 195.708L193.245 195.706L193.235 195.704L192.222 200.6ZM208.572 204.05L209.61 199.159L209.605 199.158L208.572 204.05ZM230.622 213.95L227.203 217.598L227.221 217.615L227.24 217.633L230.622 213.95ZM234.972 245L230.523 242.718L230.5 242.764L230.477 242.81L234.972 245ZM226.572 255.05L223.555 251.063L223.529 251.083L223.503 251.103L226.572 255.05ZM213.522 261.5L214.933 266.297V266.297L213.522 261.5ZM196.272 263.75V258.75C192.139 258.75 188.001 258.421 183.858 257.762L183.072 262.7L182.287 267.638C186.943 268.379 191.606 268.75 196.272 268.75V263.75ZM183.072 262.7L183.748 257.746C179.631 257.185 175.786 256.301 172.203 255.107L170.622 259.85L169.041 264.593C173.258 265.999 177.713 267.016 182.397 267.654L183.072 262.7ZM170.622 259.85L172.312 255.144C168.727 253.857 165.576 252.318 162.833 250.549L160.122 254.75L157.412 258.951C160.868 261.182 164.718 263.043 168.933 264.556L170.622 259.85ZM160.122 254.75L162.896 250.59C161.774 249.842 161.254 249.124 160.996 248.496L156.372 250.4L151.749 252.304C152.89 255.076 154.871 257.258 157.349 258.91L160.122 254.75ZM156.372 250.4L160.996 248.496C160.578 247.481 160.505 246.7 160.584 246.07L155.622 245.45L150.661 244.83C150.34 247.4 150.767 249.919 151.749 252.304L156.372 250.4ZM155.622 245.45L160.546 246.319C160.711 245.385 161.029 244.763 161.413 244.301L157.572 241.1L153.731 237.899C152.116 239.837 151.134 242.115 150.698 244.581L155.622 245.45ZM157.572 241.1L161.389 244.33C161.784 243.864 162.129 243.692 162.544 243.614L161.622 238.7L160.701 233.786C157.916 234.308 155.561 235.736 153.755 237.87L157.572 241.1ZM161.622 238.7L162.544 243.614C162.549 243.613 162.644 243.592 162.89 243.655C163.155 243.723 163.59 243.891 164.202 244.277L166.872 240.05L169.542 235.823C166.985 234.207 163.948 233.177 160.701 233.786L161.622 238.7ZM166.872 240.05L164.329 244.355C169.145 247.201 174.251 249.288 179.633 250.606L180.822 245.75L182.012 240.894C177.594 239.812 173.4 238.099 169.416 235.745L166.872 240.05ZM180.822 245.75L179.633 250.606C184.949 251.908 190.5 252.55 196.272 252.55V247.55V242.55C191.245 242.55 186.496 241.992 182.012 240.894L180.822 245.75ZM196.272 247.55V252.55C204.502 252.55 211.557 251.237 216.45 247.703L213.522 243.65L210.595 239.597C208.288 241.263 203.842 242.55 196.272 242.55V247.55ZM213.522 243.65L216.522 247.65C221.277 244.084 223.922 239.2 223.922 233.3H218.922H213.922C213.922 235.8 212.968 237.816 210.522 239.65L213.522 243.65ZM218.922 233.3H223.922C223.922 228.368 221.994 224.104 218.071 221.087L215.022 225.05L211.974 229.013C213.251 229.996 213.922 231.232 213.922 233.3H218.922ZM215.022 225.05L218.146 221.146C214.684 218.377 209.356 216.539 202.998 215.206L201.972 220.1L200.946 224.994C206.989 226.261 210.36 227.723 211.899 228.954L215.022 225.05ZM201.972 220.1L202.996 215.206L186.496 211.756L185.472 216.65L184.449 221.544L200.949 224.994L201.972 220.1ZM185.472 216.65L186.502 211.757C177.538 209.87 171.474 206.831 167.708 203.064L164.172 206.6L160.637 210.136C166.27 215.769 174.407 219.43 184.442 221.543L185.472 216.65ZM164.172 206.6L167.782 203.14C164.227 199.431 162.272 194.45 162.272 187.7H157.272H152.272C152.272 196.55 154.917 204.169 160.562 210.06L164.172 206.6ZM157.272 187.7H162.272C162.272 183.501 163.124 179.827 164.744 176.586L160.272 174.35L155.8 172.114C153.421 176.873 152.272 182.099 152.272 187.7H157.272ZM160.272 174.35L164.744 176.586C166.412 173.25 168.749 170.359 171.809 167.894L168.672 164L165.536 160.106C161.396 163.441 158.132 167.45 155.8 172.114L160.272 174.35ZM168.672 164L171.757 167.935C174.914 165.46 178.691 163.53 183.159 162.189L181.722 157.4L180.286 152.611C174.754 154.27 169.83 156.74 165.588 160.065L168.672 164ZM181.722 157.4L183.219 162.171C187.772 160.742 192.86 160 198.522 160V155V150C191.985 150 185.873 150.858 180.226 152.629L181.722 157.4ZM198.522 155V160C204.102 160 209.349 160.697 214.284 162.068L215.622 157.25L216.961 152.432C211.095 150.803 204.943 150 198.522 150V155ZM215.622 157.25L214.284 162.068C219.207 163.435 223.558 165.42 227.377 167.995L230.172 163.85L232.968 159.705C228.187 156.48 222.838 154.065 216.961 152.432L215.622 157.25ZM230.172 163.85L227.34 167.97C228.17 168.541 228.435 169.025 228.55 169.391L233.322 167.9L238.095 166.409C237.209 163.575 235.375 161.359 233.005 159.73L230.172 163.85ZM233.322 167.9L228.641 169.656C228.937 170.446 228.981 171.121 228.858 171.779L233.772 172.7L238.687 173.621C239.163 171.079 238.908 168.554 238.004 166.144L233.322 167.9ZM233.772 172.7L228.869 171.719C228.766 172.234 228.551 172.65 228.137 173.064L231.672 176.6L235.208 180.136C236.993 178.35 238.178 176.166 238.675 173.681L233.772 172.7ZM231.672 176.6L228.137 173.064C227.913 173.289 227.59 173.502 226.888 173.584L227.472 178.55L228.056 183.516C230.754 183.198 233.232 182.111 235.208 180.136L231.672 176.6ZM227.472 178.55L226.852 173.589C226.743 173.602 226.01 173.627 224.403 172.709L221.922 177.05L219.442 181.391C222.034 182.873 225.001 183.898 228.092 183.511L227.472 178.55ZM221.922 177.05L224.39 172.702C220.315 170.389 216.125 168.703 211.825 167.685L210.672 172.55L209.52 177.415C212.82 178.197 216.13 179.511 219.454 181.398L221.922 177.05ZM210.672 172.55L211.825 167.685C207.603 166.685 203.112 166.2 198.372 166.2V171.2V176.2C202.432 176.2 206.142 176.615 209.52 177.415L210.672 172.55ZM198.372 171.2V166.2C193.322 166.2 188.718 166.911 184.69 168.498L186.522 173.15L188.355 177.802C190.926 176.789 194.222 176.2 198.372 176.2V171.2ZM186.522 173.15L184.69 168.498C180.687 170.075 177.322 172.434 174.872 175.7L178.872 178.7L182.872 181.7C184.022 180.166 185.758 178.825 188.355 177.802L186.522 173.15ZM178.872 178.7L174.851 175.728C172.441 178.99 171.322 182.813 171.322 186.95H176.322H181.322C181.322 184.687 181.904 183.01 182.893 181.672L178.872 178.7ZM176.322 186.95H171.322C171.322 191.787 172.995 196.083 176.544 199.336L179.922 195.65L183.301 191.964C182.05 190.817 181.322 189.313 181.322 186.95H176.322ZM179.922 195.65L176.63 199.413C180.026 202.385 185.176 204.248 191.209 205.496L192.222 200.6L193.235 195.704C187.669 194.552 184.618 193.115 183.215 191.887L179.922 195.65ZM192.222 200.6L191.19 205.492L207.54 208.942L208.572 204.05L209.605 199.158L193.255 195.708L192.222 200.6ZM208.572 204.05L207.535 208.941C216.984 210.946 223.335 213.972 227.203 217.598L230.622 213.95L234.042 210.302C228.31 204.928 219.96 201.354 209.61 199.159L208.572 204.05ZM230.622 213.95L227.24 217.633C230.972 221.06 232.972 225.653 232.972 231.95H237.972H242.972C242.972 223.247 240.072 215.84 234.004 210.267L230.622 213.95ZM237.972 231.95H232.972C232.972 236.033 232.128 239.59 230.523 242.718L234.972 245L239.421 247.282C241.817 242.61 242.972 237.467 242.972 231.95H237.972ZM234.972 245L230.477 242.81C228.945 245.954 226.673 248.704 223.555 251.063L226.572 255.05L229.59 259.037C233.872 255.796 237.199 251.846 239.467 247.19L234.972 245ZM226.572 255.05L223.503 251.103C220.472 253.46 216.708 255.351 212.111 256.703L213.522 261.5L214.933 266.297C220.536 264.649 225.472 262.24 229.642 258.997L226.572 255.05ZM213.522 261.5L212.111 256.703C207.552 258.044 202.289 258.75 196.272 258.75V263.75V268.75C203.056 268.75 209.293 267.956 214.933 266.297L213.522 261.5ZM256.851 260.9L253.114 264.222L253.212 264.332L253.316 264.436L256.851 260.9ZM256.851 157.85L253.316 154.314L253.262 154.368L253.21 154.423L256.851 157.85ZM271.101 157.85L267.46 161.277L267.512 161.332L267.566 161.386L271.101 157.85ZM273.651 200.6H268.651V205.6H273.651V200.6ZM328.101 200.6V205.6H333.101V200.6H328.101ZM330.501 157.85L326.966 154.314L326.912 154.368L326.86 154.423L330.501 157.85ZM344.751 157.85L341.11 161.277L341.162 161.332L341.216 161.386L344.751 157.85ZM344.751 260.9L341.116 257.467L341.11 257.473L344.751 260.9ZM330.501 260.9L326.764 264.222L326.862 264.332L326.966 264.436L330.501 260.9ZM328.101 216.65H333.101V211.65H328.101V216.65ZM273.651 216.65V211.65H268.651V216.65H273.651ZM271.251 260.9L274.892 264.327L274.941 264.275L274.988 264.222L271.251 260.9ZM264.051 263.45V258.45C261.876 258.45 260.899 257.877 260.387 257.364L256.851 260.9L253.316 264.436C256.203 267.323 260.026 268.45 264.051 268.45V263.45ZM256.851 260.9L260.588 257.578C260.014 256.932 259.451 255.787 259.451 253.55H254.451H249.451C249.451 257.513 250.489 261.268 253.114 264.222L256.851 260.9ZM254.451 253.55H259.451V165.2H254.451H249.451V253.55H254.451ZM254.451 165.2H259.451C259.451 162.795 260.046 161.751 260.492 161.277L256.851 157.85L253.21 154.423C250.457 157.349 249.451 161.205 249.451 165.2H254.451ZM256.851 157.85L260.387 161.386C260.899 160.873 261.876 160.3 264.051 160.3V155.3V150.3C260.026 150.3 256.203 151.427 253.316 154.314L256.851 157.85ZM264.051 155.3V160.3C266.245 160.3 267.086 160.879 267.46 161.277L271.101 157.85L274.742 154.423C271.916 151.421 268.058 150.3 264.051 150.3V155.3ZM271.101 157.85L267.566 161.386C268.05 161.869 268.651 162.872 268.651 165.2H273.651H278.651C278.651 161.128 277.553 157.23 274.637 154.314L271.101 157.85ZM273.651 165.2H268.651V200.6H273.651H278.651V165.2H273.651ZM273.651 200.6V205.6H328.101V200.6V195.6H273.651V200.6ZM328.101 200.6H333.101V165.2H328.101H323.101V200.6H328.101ZM328.101 165.2H333.101C333.101 162.795 333.696 161.751 334.142 161.277L330.501 157.85L326.86 154.423C324.107 157.349 323.101 161.205 323.101 165.2H328.101ZM330.501 157.85L334.037 161.386C334.549 160.873 335.526 160.3 337.701 160.3V155.3V150.3C333.676 150.3 329.853 151.427 326.966 154.314L330.501 157.85ZM337.701 155.3V160.3C339.895 160.3 340.736 160.879 341.11 161.277L344.751 157.85L348.392 154.423C345.566 151.421 341.708 150.3 337.701 150.3V155.3ZM344.751 157.85L341.216 161.386C341.7 161.869 342.301 162.872 342.301 165.2H347.301H352.301C352.301 161.128 351.203 157.23 348.287 154.314L344.751 157.85ZM347.301 165.2H342.301V253.55H347.301H352.301V165.2H347.301ZM347.301 253.55H342.301C342.301 255.71 341.733 256.814 341.116 257.467L344.751 260.9L348.386 264.333C351.17 261.386 352.301 257.59 352.301 253.55H347.301ZM344.751 260.9L341.11 257.473C340.736 257.871 339.895 258.45 337.701 258.45V263.45V268.45C341.708 268.45 345.566 267.329 348.392 264.327L344.751 260.9ZM337.701 263.45V258.45C335.526 258.45 334.549 257.877 334.037 257.364L330.501 260.9L326.966 264.436C329.853 267.323 333.676 268.45 337.701 268.45V263.45ZM330.501 260.9L334.238 257.578C333.664 256.932 333.101 255.787 333.101 253.55H328.101H323.101C323.101 257.513 324.139 261.268 326.764 264.222L330.501 260.9ZM328.101 253.55H333.101V216.65H328.101H323.101V253.55H328.101ZM328.101 216.65V211.65H273.651V216.65V221.65H328.101V216.65ZM273.651 216.65H268.651V253.55H273.651H278.651V216.65H273.651ZM273.651 253.55H268.651C268.651 255.787 268.089 256.932 267.514 257.578L271.251 260.9L274.988 264.222C277.614 261.268 278.651 257.513 278.651 253.55H273.651ZM271.251 260.9L267.61 257.473C267.264 257.841 266.4 258.45 264.051 258.45V263.45V268.45C268.102 268.45 272.038 267.359 274.892 264.327L271.251 260.9ZM373.017 259.7L369.382 263.133L369.48 263.237L369.584 263.335L373.017 259.7ZM373.017 159.2L369.481 155.664V155.664L373.017 159.2ZM439.917 158.45L436.381 161.986L436.447 162.051L436.515 162.114L439.917 158.45ZM388.917 171.8V166.8H383.917V171.8H388.917ZM388.917 200.9H383.917V205.9H388.917V200.9ZM436.767 202.85L440.302 199.314V199.314L436.767 202.85ZM436.767 214.25L440.302 217.786V217.786L436.767 214.25ZM388.917 216.2V211.2H383.917V216.2H388.917ZM388.917 246.95H383.917V251.95H388.917V246.95ZM439.917 248.9L436.381 252.436L436.447 252.501L436.515 252.564L439.917 248.9ZM439.917 260.3L436.515 256.636L436.447 256.699L436.381 256.764L439.917 260.3ZM380.667 262.25V257.25C378.208 257.25 377.047 256.629 376.45 256.065L373.017 259.7L369.584 263.335C372.586 266.171 376.525 267.25 380.667 267.25V262.25ZM373.017 259.7L376.652 256.267C376.088 255.669 375.467 254.509 375.467 252.05H370.467H365.467C365.467 256.191 366.546 260.131 369.382 263.133L373.017 259.7ZM370.467 252.05H375.467V166.7H370.467H365.467V252.05H370.467ZM370.467 166.7H375.467C375.467 164.221 376.095 163.193 376.552 162.736L373.017 159.2L369.481 155.664C366.538 158.607 365.467 162.579 365.467 166.7H370.467ZM373.017 159.2L376.552 162.736C377.16 162.128 378.283 161.5 380.667 161.5V156.5V151.5C376.451 151.5 372.474 152.672 369.481 155.664L373.017 159.2ZM380.667 156.5V161.5H434.217V156.5V151.5H380.667V156.5ZM434.217 156.5V161.5C435.88 161.5 436.316 161.92 436.381 161.986L439.917 158.45L443.452 154.914C440.918 152.38 437.553 151.5 434.217 151.5V156.5ZM439.917 158.45L436.515 162.114C436.647 162.237 437.017 162.61 437.017 164H442.017H447.017C447.017 160.59 445.987 157.263 443.319 154.786L439.917 158.45ZM442.017 164H437.017C437.017 165.541 436.613 166.083 436.381 166.314L439.917 169.85L443.452 173.386C446.021 170.817 447.017 167.459 447.017 164H442.017ZM439.917 169.85L436.381 166.314C436.316 166.38 435.88 166.8 434.217 166.8V171.8V176.8C437.553 176.8 440.918 175.92 443.452 173.386L439.917 169.85ZM434.217 171.8V166.8H388.917V171.8V176.8H434.217V171.8ZM388.917 171.8H383.917V200.9H388.917H393.917V171.8H388.917ZM388.917 200.9V205.9H430.917V200.9V195.9H388.917V200.9ZM430.917 200.9V205.9C432.746 205.9 433.2 206.354 433.231 206.386L436.767 202.85L440.302 199.314C437.734 196.746 434.288 195.9 430.917 195.9V200.9ZM436.767 202.85L433.231 206.386C433.296 206.451 433.717 206.887 433.717 208.55H438.717H443.717C443.717 205.213 442.837 201.849 440.302 199.314L436.767 202.85ZM438.717 208.55H433.717C433.717 210.213 433.296 210.649 433.231 210.714L436.767 214.25L440.302 217.786C442.837 215.251 443.717 211.887 443.717 208.55H438.717ZM436.767 214.25L433.231 210.714C433.2 210.746 432.746 211.2 430.917 211.2V216.2V221.2C434.288 221.2 437.734 220.354 440.302 217.786L436.767 214.25ZM430.917 216.2V211.2H388.917V216.2V221.2H430.917V216.2ZM388.917 216.2H383.917V246.95H388.917H393.917V216.2H388.917ZM388.917 246.95V251.95H434.217V246.95V241.95H388.917V246.95ZM434.217 246.95V251.95C435.88 251.95 436.316 252.37 436.381 252.436L439.917 248.9L443.452 245.364C440.918 242.83 437.553 241.95 434.217 241.95V246.95ZM439.917 248.9L436.515 252.564C436.606 252.649 437.017 253.039 437.017 254.6H442.017H447.017C447.017 251.161 446.027 247.751 443.319 245.236L439.917 248.9ZM442.017 254.6H437.017C437.017 256.161 436.606 256.551 436.515 256.636L439.917 260.3L443.319 263.964C446.027 261.449 447.017 258.039 447.017 254.6H442.017ZM439.917 260.3L436.381 256.764C436.316 256.83 435.88 257.25 434.217 257.25V262.25V267.25C437.553 267.25 440.918 266.37 443.452 263.836L439.917 260.3ZM434.217 262.25V257.25H380.667V262.25V267.25H434.217V262.25ZM462.519 259.7L458.884 263.133L458.933 263.185L458.983 263.236L462.519 259.7ZM462.369 158.6L458.833 155.064V155.064L462.369 158.6ZM476.619 158.6L472.978 162.027L473.082 162.137L473.192 162.241L476.619 158.6ZM479.169 245.9H474.169V250.9H479.169V245.9ZM528.819 248L525.283 251.536L525.344 251.596L525.407 251.655L528.819 248ZM528.819 260.15L532.354 263.686V263.686L528.819 260.15ZM469.719 262.25V257.25C467.544 257.25 466.567 256.677 466.054 256.164L462.519 259.7L458.983 263.236C461.871 266.123 465.694 267.25 469.719 267.25V262.25ZM462.519 259.7L466.154 256.267C465.537 255.614 464.969 254.51 464.969 252.35H459.969H454.969C454.969 256.39 456.1 260.186 458.884 263.133L462.519 259.7ZM459.969 252.35H464.969V165.8H459.969H454.969V252.35H459.969ZM459.969 165.8H464.969C464.969 163.371 465.573 162.467 465.904 162.136L462.369 158.6L458.833 155.064C455.965 157.933 454.969 161.829 454.969 165.8H459.969ZM462.369 158.6L465.904 162.136C466.417 161.623 467.394 161.05 469.569 161.05V156.05V151.05C465.544 151.05 461.721 152.177 458.833 155.064L462.369 158.6ZM469.569 156.05V161.05C471.762 161.05 472.604 161.629 472.978 162.027L476.619 158.6L480.26 155.173C477.434 152.171 473.575 151.05 469.569 151.05V156.05ZM476.619 158.6L473.192 162.241C473.559 162.587 474.169 163.451 474.169 165.8H479.169H484.169C484.169 161.749 483.078 157.813 480.046 154.959L476.619 158.6ZM479.169 165.8H474.169V245.9H479.169H484.169V165.8H479.169ZM479.169 245.9V250.9H522.669V245.9V240.9H479.169V245.9ZM522.669 245.9V250.9C524.537 250.9 525.121 251.373 525.283 251.536L528.819 248L532.354 244.464C529.717 241.827 526.201 240.9 522.669 240.9V245.9ZM528.819 248L525.407 251.655C525.638 251.871 526.069 252.392 526.069 254H531.069H536.069C536.069 250.408 534.999 246.929 532.23 244.345L528.819 248ZM531.069 254H526.069C526.069 255.592 525.642 256.255 525.283 256.614L528.819 260.15L532.354 263.686C534.995 261.045 536.069 257.608 536.069 254H531.069ZM528.819 260.15L525.283 256.614C525.121 256.777 524.537 257.25 522.669 257.25V262.25V267.25C526.201 267.25 529.717 266.323 532.354 263.686L528.819 260.15ZM522.669 262.25V257.25H469.719V262.25V267.25H522.669V262.25ZM546.747 260.9L543.112 264.333L543.21 264.437L543.314 264.535L546.747 260.9ZM546.747 159.2L543.212 155.664V155.664L546.747 159.2ZM612.597 158.45L616.133 154.914V154.914L612.597 158.45ZM612.597 169.85L616.133 173.386L616.198 173.32L616.261 173.252L612.597 169.85ZM563.397 171.8V166.8H558.397V171.8H563.397ZM563.397 201.65H558.397V206.65H563.397V201.65ZM609.297 203.6L605.762 207.136L605.827 207.201L605.895 207.264L609.297 203.6ZM563.397 216.95V211.95H558.397V216.95H563.397ZM554.097 263.45V258.45C551.937 258.45 550.833 257.882 550.18 257.265L546.747 260.9L543.314 264.535C546.261 267.318 550.057 268.45 554.097 268.45V263.45ZM546.747 260.9L550.382 257.467C549.818 256.869 549.197 255.709 549.197 253.25H544.197H539.197C539.197 257.391 540.277 261.331 543.112 264.333L546.747 260.9ZM544.197 253.25H549.197V166.7H544.197H539.197V253.25H544.197ZM544.197 166.7H549.197C549.197 164.221 549.826 163.193 550.283 162.736L546.747 159.2L543.212 155.664C540.269 158.607 539.197 162.579 539.197 166.7H544.197ZM546.747 159.2L550.283 162.736C550.89 162.128 552.013 161.5 554.397 161.5V156.5V151.5C550.181 151.5 546.204 152.672 543.212 155.664L546.747 159.2ZM554.397 156.5V161.5H606.747V156.5V151.5H554.397V156.5ZM606.747 156.5V161.5C608.577 161.5 609.03 161.954 609.062 161.986L612.597 158.45L616.133 154.914C613.564 152.346 610.118 151.5 606.747 151.5V156.5ZM612.597 158.45L609.062 161.986C609.163 162.087 609.547 162.505 609.547 164H614.547H619.547C619.547 160.695 618.632 157.413 616.133 154.914L612.597 158.45ZM614.547 164H609.547C609.547 165.638 609.136 166.229 608.933 166.448L612.597 169.85L616.261 173.252C618.658 170.671 619.547 167.362 619.547 164H614.547ZM612.597 169.85L609.062 166.314C609.03 166.346 608.577 166.8 606.747 166.8V171.8V176.8C610.118 176.8 613.564 175.954 616.133 173.386L612.597 169.85ZM606.747 171.8V166.8H563.397V171.8V176.8H606.747V171.8ZM563.397 171.8H558.397V201.65H563.397H568.397V171.8H563.397ZM563.397 201.65V206.65H603.597V201.65V196.65H563.397V201.65ZM603.597 201.65V206.65C605.261 206.65 605.697 207.07 605.762 207.136L609.297 203.6L612.833 200.064C610.298 197.53 606.934 196.65 603.597 196.65V201.65ZM609.297 203.6L605.895 207.264C606.028 207.387 606.397 207.76 606.397 209.15H611.397H616.397C616.397 205.74 615.367 202.413 612.7 199.936L609.297 203.6ZM611.397 209.15H606.397C606.397 210.691 605.993 211.233 605.762 211.464L609.297 215L612.833 218.536C615.401 215.967 616.397 212.609 616.397 209.15H611.397ZM609.297 215L605.762 211.464C605.697 211.53 605.261 211.95 603.597 211.95V216.95V221.95C606.934 221.95 610.298 221.07 612.833 218.536L609.297 215ZM603.597 216.95V211.95H563.397V216.95V221.95H603.597V216.95ZM563.397 216.95H558.397V253.25H563.397H568.397V216.95H563.397ZM563.397 253.25H558.397C558.397 255.988 557.763 257.108 557.378 257.531C557.071 257.867 556.302 258.45 554.097 258.45V263.45V268.45C558.093 268.45 561.973 267.333 564.767 264.269C567.481 261.292 568.397 257.312 568.397 253.25H563.397Z" fill="black" mask="url(#path-1-outside-1_6_3)"/>
</svg>
